<?xml version="1.0" encoding="UTF-8" standalone="no"?>
<!-- Generated by graphviz version 2.38.0 (20140413.2041)
 -->

<!-- Title: flusso Pages: 1 -->

<svg
   xmlns:dc="http://purl.org/dc/elements/1.1/"
   xmlns:cc="http://creativecommons.org/ns#"
   xmlns:rdf="http://www.w3.org/1999/02/22-rdf-syntax-ns#"
   xmlns:svg="http://www.w3.org/2000/svg"
   xmlns="http://www.w3.org/2000/svg"
   xmlns:sodipodi="http://sodipodi.sourceforge.net/DTD/sodipodi-0.dtd"
   xmlns:inkscape="http://www.inkscape.org/namespaces/inkscape"
   width="319pt"
   height="800pt"
   viewBox="0.00 0.00 28.74 72.00"
   id="svg2"
   version="1.1"
   inkscape:version="0.48.5 r10040"
   sodipodi:docname="diagramma-di-flusso.dot.svg">
  <metadata
     id="metadata80">
    <rdf:RDF>
      <cc:Work
         rdf:about="">
        <dc:format>image/svg+xml</dc:format>
        <dc:type
           rdf:resource="http://purl.org/dc/dcmitype/StillImage" />
        <dc:title />
      </cc:Work>
    </rdf:RDF>
  </metadata>
  <defs
     id="defs78" />
  <sodipodi:namedview
     pagecolor="#ffffff"
     bordercolor="#666666"
     borderopacity="1"
     objecttolerance="10"
     gridtolerance="10"
     guidetolerance="10"
     inkscape:pageopacity="0"
     inkscape:pageshadow="2"
     inkscape:window-width="1341"
     inkscape:window-height="822"
     id="namedview76"
     showgrid="false"
     showguides="true"
     inkscape:guide-bbox="true"
     inkscape:zoom="0.22627417"
     inkscape:cx="4429.822"
     inkscape:cy="-2794.8861"
     inkscape:window-x="0"
     inkscape:window-y="27"
     inkscape:window-maximized="0"
     inkscape:current-layer="g3148">
    <sodipodi:guide
       orientation="1,0"
       position="2229.1841,-7526.4925"
       id="guide3108" />
    <sodipodi:guide
       orientation="0,1"
       position="4985.702,-10420.836"
       id="guide3198" />
    <sodipodi:guide
       orientation="1,0"
       position="5584.9451,-10936.185"
       id="guide3200" />
    <sodipodi:guide
       orientation="0,1"
       position="8413.3722,-2061.396"
       id="guide3202" />
  </sodipodi:namedview>
  <polygon
     style="fill:#ffffff;stroke:none"
     id="polygon7"
     points="-4,4 -4,4 -4,-345 135.288,-345 135.288,4 "
     transform="matrix(2.29226,0,0,2.29226,9.16904,791.118)"
     inkscape:export-filename="/home/nicola/Documents/repos/diario-in-codice-website/resources/day3/algorithm.png"
     inkscape:export-xdpi="8.066761"
     inkscape:export-ydpi="8.066761" />
  <g
     class="node"
     id="node1"
     transform="matrix(2.29226,0,0,2.29226,9.16904,790.8297)"
     inkscape:export-filename="/home/nicola/Documents/repos/diario-in-codice-website/resources/day3/algorithm.png"
     inkscape:export-xdpi="8.066761"
     inkscape:export-ydpi="8.066761">
    <title
       id="title10">node0</title>
    <ellipse
       style="fill:#ff4444;stroke:#ff4444"
       sodipodi:ry="18"
       sodipodi:rx="42.792599"
       sodipodi:cy="-323"
       sodipodi:cx="65.644203"
       d="m 108.4368,-323 c 0,9.94113 -19.158897,18 -42.792597,18 -23.633699,0 -42.792599,-8.05887 -42.792599,-18 0,-9.94113 19.1589,-18 42.792599,-18 23.6337,0 42.792597,8.05887 42.792597,18 z"
       id="ellipse12"
       ry="18"
       rx="42.792599"
       cy="-323"
       cx="65.644203" />
    <text
       style="font-size:14px;text-anchor:middle;font-family:'Courier,monospace'"
       id="text14"
       font-size="14.00"
       y="-319.29999"
       x="65.644203">inizio</text>
  </g>
  <g
     class="node"
     id="node2"
     transform="matrix(2.29226,0,0,2.29226,485.99307,820.1993)">
    <title
       id="title17">node1</title>
    <ellipse
       style="fill:none;stroke:#000000"
       sodipodi:ry="18"
       sodipodi:rx="61.990002"
       sodipodi:cy="-251"
       sodipodi:cx="65.644203"
       d="m 127.6342,-251 c 0,9.94113 -27.753864,18 -61.989997,18 -34.236132,0 -61.9900015,-8.05887 -61.9900015,-18 0,-9.94113 27.7538695,-18 61.9900015,-18 34.236133,0 61.989997,8.05887 61.989997,18 z"
       id="ellipse19"
       ry="18"
       rx="61.990002"
       cy="-251"
       cx="65.644203" />
    <text
       style="font-size:14px;text-anchor:middle;font-family:'Times,serif'"
       id="text21"
       font-size="14.00"
       y="-247.3"
       x="65.644203">misura la base</text>
  </g>
  <g
     class="edge"
     id="edge1"
     transform="matrix(2.29226,0,0,2.29226,9.16904,790.8297)"
     inkscape:export-filename="/home/nicola/Documents/repos/diario-in-codice-website/resources/day3/algorithm.png"
     inkscape:export-xdpi="8.066761"
     inkscape:export-ydpi="8.066761">
    <title
       id="title24">node0-&gt;node1</title>
    <path
       style="fill:none;stroke:#000000"
       inkscape:connector-curvature="0"
       id="path26"
       d="m 65.6442,-304.697 c 0,7.714 0,16.985 0,25.585" />
    <polygon
       style="fill:#000000;stroke:#000000"
       id="polygon28"
       points="65.6442,-274.104 65.6443,-279.104 65.6443,-279.104 65.6443,-279.104 65.6442,-274.104 61.1443,-279.104 65.6442,-269.104 65.6442,-269.104 65.6442,-269.104 70.1443,-279.104 " />
  </g>
  <g
     class="node"
     id="node3"
     transform="matrix(2.29226,0,0,2.29226,10.195387,805.09551)"
     inkscape:export-filename="/home/nicola/Documents/repos/diario-in-codice-website/resources/day3/algorithm.png"
     inkscape:export-xdpi="8.066761"
     inkscape:export-ydpi="8.066761">
    <title
       id="title31">node2</title>
    <ellipse
       style="fill:none;stroke:#000000"
       sodipodi:ry="18"
       sodipodi:rx="65.788696"
       sodipodi:cy="-179"
       sodipodi:cx="65.644203"
       d="m 131.4329,-179 c 0,9.94113 -29.4546,18 -65.788697,18 -36.334093,0 -65.7886961,-8.05887 -65.7886961,-18 0,-9.94113 29.4546031,-18 65.7886961,-18 36.334097,0 65.788697,8.05887 65.788697,18 z"
       id="ellipse33"
       ry="18"
       rx="65.788696"
       cy="-179"
       cx="65.644203" />
  </g>
  <g
     class="edge"
     id="edge2"
     transform="matrix(2.29226,0,0,2.29226,10.195394,969.92157)"
     inkscape:export-filename="/home/nicola/Documents/repos/diario-in-codice-website/resources/day3/algorithm.png"
     inkscape:export-xdpi="8.066761"
     inkscape:export-ydpi="8.066761">
    <title
       id="title38">node1-&gt;node2</title>
    <path
       style="fill:none;stroke:#000000"
       inkscape:connector-curvature="0"
       id="path40"
       d="m 65.6442,-232.697 c 0,7.714 0,16.985 0,25.585" />
    <polygon
       style="fill:#000000;stroke:#000000"
       id="polygon42"
       points="65.6442,-197.104 65.6442,-197.104 65.6442,-197.104 70.1443,-207.104 65.6442,-202.104 65.6443,-207.104 65.6443,-207.104 65.6443,-207.104 65.6442,-202.104 61.1443,-207.104 " />
  </g>
  <g
     class="node"
     id="node4"
     transform="matrix(2.29226,0,0,2.29226,9.16904,465.0507)"
     inkscape:export-filename="/home/nicola/Documents/repos/diario-in-codice-website/resources/day3/algorithm.png"
     inkscape:export-xdpi="8.066761"
     inkscape:export-ydpi="8.066761">
    <title
       id="title45">node3</title>
    <polygon
       style="fill:none;stroke:#000000"
       id="polygon47"
       points="117.144,-125 117.144,-125 14.1442,-125 14.1442,-72 117.144,-72 "
       transform="matrix(1,0,0,0.73704836,0,-32.868955)" />
    <flowRoot
       xml:space="preserve"
       id="flowRoot3110"
       style="font-size:72px;font-style:normal;font-weight:normal;line-height:125%;letter-spacing:0px;word-spacing:0px;fill:#000000;fill-opacity:1;stroke:none;font-family:'Tom\'s New Roman';-inkscape-font-specification:'Tom\'s New Roman'"
       transform="matrix(0.03144287,0,0,0.03144287,-6.6646501,-208.75733)"><flowRegion
         id="flowRegion3112"><rect
           id="rect3114"
           width="2661.0171"
           height="1644.0676"
           x="966.10168"
           y="2661.0168" /></flowRegion><flowPara
         id="flowPara3116"
         style="font-size:600px;text-align:center;line-height:100%;text-anchor:middle">accendi </flowPara><flowPara
         style="font-size:600px;text-align:center;line-height:100%;text-anchor:middle"
         id="flowPara3118">il LED</flowPara></flowRoot>    <flowRoot
       transform="matrix(0.03144287,0,0,0.03144287,-6.6646501,-131.59606)"
       style="font-size:72px;font-style:normal;font-weight:normal;line-height:125%;letter-spacing:0px;word-spacing:0px;fill:#000000;fill-opacity:1;stroke:none;font-family:'Tom\'s New Roman';-inkscape-font-specification:'Tom\'s New Roman'"
       id="flowRoot3120"
       xml:space="preserve"><flowRegion
         id="flowRegion3122"><rect
           y="2661.0168"
           x="966.10168"
           height="1644.0676"
           width="2661.0171"
           id="rect3124" /></flowRegion><flowPara
         style="font-size:600px;text-align:center;line-height:83.00000429%;text-anchor:middle"
         id="flowPara3126">attendi</flowPara><flowPara
         id="flowPara3128"
         style="font-size:600px;text-align:center;line-height:83.00000429%;text-anchor:middle">un secondo</flowPara></flowRoot>    <flowRoot
       xml:space="preserve"
       id="flowRoot3134"
       style="fill:black;stroke:none;stroke-opacity:1;stroke-width:1px;stroke-linejoin:miter;stroke-linecap:butt;fill-opacity:1;font-family:'Tom\'s New Roman';font-style:normal;font-weight:normal;font-size:72px;line-height:125%;letter-spacing:0px;word-spacing:0px;-inkscape-font-specification:'Tom\'s New Roman'"><flowRegion
         id="flowRegion3136"><rect
           id="rect3138"
           width="0"
           height="76.271187"
           x="4983.0508"
           y="2720.3389" /></flowRegion><flowPara
         id="flowPara3140" /></flowRoot>  </g>
  <g
     class="edge"
     id="edge3"
     transform="matrix(2.29226,0,0,2.29226,9.16904,636.5892)"
     inkscape:export-filename="/home/nicola/Documents/repos/diario-in-codice-website/resources/day3/algorithm.png"
     inkscape:export-xdpi="8.066761"
     inkscape:export-ydpi="8.066761">
    <title
       id="title56">node2-&gt;node3</title>
    <path
       style="fill:none;stroke:#000000"
       inkscape:connector-curvature="0"
       id="path58"
       d="m 65.6442,-160.967 c 0,7.52 0,16.661 0,25.57" />
    <polygon
       style="fill:#000000;stroke:#000000"
       id="polygon60"
       points="65.6443,-135.156 65.6443,-135.156 65.6443,-135.156 65.6442,-130.156 61.1443,-135.156 65.6442,-125.156 65.6442,-125.156 65.6442,-125.156 70.1443,-135.156 65.6442,-130.156 " />
  </g>
  <g
     class="node"
     id="node5"
     transform="matrix(2.29226,0,0,2.29226,-274.80684,790.8297)">
    <title
       id="title63">node4</title>
    <ellipse
       style="fill:#44ff44;stroke:#44ff44"
       sodipodi:ry="18"
       sodipodi:rx="37.894299"
       sodipodi:cy="-18"
       sodipodi:cx="65.644203"
       d="m 103.5385,-18 c 0,9.9411255 -16.965854,18 -37.894297,18 -20.928443,0 -37.894298,-8.0588745 -37.894298,-18 0,-9.941125 16.965855,-18 37.894298,-18 20.928443,0 37.894297,8.058875 37.894297,18 z"
       id="ellipse65"
       ry="18"
       rx="37.894299"
       cy="-18"
       cx="65.644203" />
    <text
       style="font-size:14px;text-anchor:middle;font-family:'Courier,monospace'"
       id="text67"
       font-size="14.00"
       y="-14.3"
       x="65.644203">fine!</text>
  </g>
  <g
     class="edge"
     id="edge4"
     transform="matrix(2.29226,0,0,2.29226,-274.80684,790.8297)">
    <title
       id="title70">node3-&gt;node4</title>
    <path
       style="fill:none;stroke:#000000"
       inkscape:connector-curvature="0"
       id="path72"
       d="m 65.6442,-71.7962 c 0,8.0836 0,17.0409 0,25.2472" />
    <polygon
       style="fill:#000000;stroke:#000000"
       id="polygon74"
       points="65.6442,-36.3304 65.6442,-36.3304 70.1443,-46.3304 65.6442,-41.3304 65.6443,-46.3304 65.6443,-46.3304 65.6443,-46.3304 65.6442,-41.3304 61.1443,-46.3305 65.6442,-36.3304 " />
  </g>
  <g
     transform="matrix(2.29226,0,0,2.29226,494.63119,853.02414)"
     id="g3096"
     class="node">
    <title
       id="title3098">node3</title>
    <polygon
       points="117.144,-72 117.144,-125 117.144,-125 14.1442,-125 14.1442,-72 "
       id="polygon3100"
       style="fill:none;stroke:#000000" />
    <text
       x="65.644203"
       y="-109.8"
       font-size="14.00"
       id="text3102"
       style="font-size:14px;text-anchor:middle;font-family:'Times,serif'">calcola</text>
    <text
       x="65.644203"
       y="-94.800003"
       font-size="14.00"
       id="text3104"
       style="font-size:14px;text-anchor:middle;font-family:'Times,serif'">base per altezza</text>
    <text
       x="65.644203"
       y="-79.800003"
       font-size="14.00"
       id="text3106"
       style="font-size:14px;text-anchor:middle;font-family:'Times,serif'">diviso 2</text>
  </g>
  <g
     transform="matrix(2.29226,0,0,2.29226,11.63689,1149.614)"
     id="g3142"
     class="node"
     inkscape:export-filename="/home/nicola/Documents/repos/diario-in-codice-website/resources/day3/algorithm.png"
     inkscape:export-xdpi="8.066761"
     inkscape:export-ydpi="8.066761">
    <title
       id="title3144">node2</title>
    <ellipse
       cx="65.644203"
       cy="-179"
       rx="65.788696"
       ry="18"
       id="ellipse3146"
       d="m 131.4329,-179 c 0,9.94113 -29.4546,18 -65.788697,18 -36.334093,0 -65.7886961,-8.05887 -65.7886961,-18 0,-9.94113 29.4546031,-18 65.7886961,-18 36.334097,0 65.788697,8.05887 65.788697,18 z"
       sodipodi:cx="65.644203"
       sodipodi:cy="-179"
       sodipodi:rx="65.788696"
       sodipodi:ry="18"
       style="fill:none;stroke:#000000" />
  </g>
  <g
     transform="matrix(2.29226,0,0,2.29226,10.195394,1312.2806)"
     id="g3148"
     class="edge">
    <title
       id="title3150">node1-&gt;node2</title>
    <path
       d="m 65.6442,-232.697 0,19.30115 105.51476,0 0,-262.8448 -43.92548,0"
       id="path3152"
       inkscape:connector-curvature="0"
       style="fill:none;stroke:#000000"
       sodipodi:nodetypes="ccccc"
       inkscape:export-filename="/home/nicola/Documents/repos/diario-in-codice-website/resources/day3/algorithm.png"
       inkscape:export-xdpi="8.066761"
       inkscape:export-ydpi="8.066761" />
    <polygon
       points="65.6443,-207.104 65.6443,-207.104 65.6442,-202.104 61.1443,-207.104 65.6442,-197.104 65.6442,-197.104 65.6442,-197.104 70.1443,-207.104 65.6442,-202.104 65.6443,-207.104 "
       id="polygon3154"
       style="fill:#000000;stroke:#000000"
       transform="matrix(0,1,-1,0,-78.815315,-541.88495)"
       inkscape:export-filename="/home/nicola/Documents/repos/diario-in-codice-website/resources/day3/algorithm.png"
       inkscape:export-xdpi="8.066761"
       inkscape:export-ydpi="8.066761" />
  </g>
  <g
     transform="matrix(2.29226,0,0,2.29226,10.610545,809.5692)"
     id="g3156"
     class="node"
     inkscape:export-filename="/home/nicola/Documents/repos/diario-in-codice-website/resources/day3/algorithm.png"
     inkscape:export-xdpi="8.066761"
     inkscape:export-ydpi="8.066761">
    <title
       id="title3158">node3</title>
    <polygon
       transform="matrix(1,0,0,0.73704836,0,-32.868955)"
       points="14.1442,-72 117.144,-72 117.144,-125 117.144,-125 14.1442,-125 "
       id="polygon3160"
       style="fill:none;stroke:#000000" />
    <flowRoot
       transform="matrix(0.03144287,0,0,0.03144287,-6.6646501,-208.75733)"
       style="font-size:72px;font-style:normal;font-weight:normal;line-height:125%;letter-spacing:0px;word-spacing:0px;fill:#000000;fill-opacity:1;stroke:none;font-family:'Tom\'s New Roman';-inkscape-font-specification:'Tom\'s New Roman'"
       id="flowRoot3162"
       xml:space="preserve"><flowRegion
         id="flowRegion3164"><rect
           y="2661.0168"
           x="966.10168"
           height="1644.0676"
           width="2661.0171"
           id="rect3166" /></flowRegion><flowPara
         style="font-size:600px;text-align:center;line-height:100%;text-anchor:middle"
         id="flowPara3168">spegni</flowPara><flowPara
         id="flowPara3170"
         style="font-size:600px;text-align:center;line-height:100%;text-anchor:middle">il LED</flowPara></flowRoot>    <flowRoot
       xml:space="preserve"
       id="flowRoot3172"
       style="font-size:72px;font-style:normal;font-weight:normal;line-height:125%;letter-spacing:0px;word-spacing:0px;fill:#000000;fill-opacity:1;stroke:none;font-family:'Tom\'s New Roman';-inkscape-font-specification:'Tom\'s New Roman'"
       transform="matrix(0.03144287,0,0,0.03144287,-6.6646501,-131.59606)"><flowRegion
         id="flowRegion3174"><rect
           id="rect3176"
           width="2661.0171"
           height="1644.0676"
           x="966.10168"
           y="2661.0168" /></flowRegion><flowPara
         id="flowPara3178"
         style="font-size:600px;text-align:center;line-height:83.00000429%;text-anchor:middle">attendi</flowPara><flowPara
         style="font-size:600px;text-align:center;line-height:83.00000429%;text-anchor:middle"
         id="flowPara3180">un secondo</flowPara></flowRoot>    <flowRoot
       style="font-size:72px;font-style:normal;font-weight:normal;line-height:125%;letter-spacing:0px;word-spacing:0px;fill:#000000;fill-opacity:1;stroke:none;font-family:'Tom\'s New Roman';-inkscape-font-specification:'Tom\'s New Roman'"
       id="flowRoot3182"
       xml:space="preserve"><flowRegion
         id="flowRegion3184"><rect
           y="2720.3389"
           x="4983.0508"
           height="76.271187"
           width="0"
           id="rect3186" /></flowRegion><flowPara
         id="flowPara3188" /></flowRoot>  </g>
  <g
     transform="matrix(2.29226,0,0,2.29226,10.610545,981.1077)"
     id="g3190"
     class="edge"
     inkscape:export-filename="/home/nicola/Documents/repos/diario-in-codice-website/resources/day3/algorithm.png"
     inkscape:export-xdpi="8.066761"
     inkscape:export-ydpi="8.066761">
    <title
       id="title3192">node2-&gt;node3</title>
    <path
       d="m 65.6442,-160.967 c 0,7.52 0,16.661 0,25.57"
       id="path3194"
       inkscape:connector-curvature="0"
       style="fill:none;stroke:#000000" />
    <polygon
       points="70.1443,-135.156 65.6442,-130.156 65.6443,-135.156 65.6443,-135.156 65.6443,-135.156 65.6442,-130.156 61.1443,-135.156 65.6442,-125.156 65.6442,-125.156 65.6442,-125.156 "
       id="polygon3196"
       style="fill:#000000;stroke:#000000" />
  </g>
</svg>
