<?xml version="1.0" encoding="UTF-8" standalone="no"?>
<!-- Created with Inkscape (http://www.inkscape.org/) -->

<svg
   xmlns:dc="http://purl.org/dc/elements/1.1/"
   xmlns:cc="http://creativecommons.org/ns#"
   xmlns:rdf="http://www.w3.org/1999/02/22-rdf-syntax-ns#"
   xmlns:svg="http://www.w3.org/2000/svg"
   xmlns="http://www.w3.org/2000/svg"
   xmlns:sodipodi="http://sodipodi.sourceforge.net/DTD/sodipodi-0.dtd"
   xmlns:inkscape="http://www.inkscape.org/namespaces/inkscape"
   width="810.41626"
   height="603.79999"
   id="svg2"
   version="1.1"
   inkscape:version="0.48.5 r10040"
   sodipodi:docname="pompa_01.svg"
   inkscape:export-filename="/home/nicola/Documents/repos/diario-in-codice-website/assets/images/appendice_A/pompa_01.png"
   inkscape:export-xdpi="114.61526"
   inkscape:export-ydpi="114.61526"
   enable-background="new">
  <defs
     id="defs4">
    <marker
       inkscape:stockid="Arrow2Mend"
       orient="auto"
       refY="0.0"
       refX="0.0"
       id="Arrow2Mend"
       style="overflow:visible;">
      <path
         id="path3854"
         style="fill-rule:evenodd;stroke-width:0.62500000;stroke-linejoin:round;"
         d="M 8.7185878,4.0337352 L -2.2072895,0.016013256 L 8.7185884,-4.0017078 C 6.9730900,-1.6296469 6.9831476,1.6157441 8.7185878,4.0337352 z "
         transform="scale(0.6) rotate(180) translate(0,0)" />
    </marker>
    <marker
       inkscape:stockid="Arrow1Mstart"
       orient="auto"
       refY="0.0"
       refX="0.0"
       id="Arrow1Mstart"
       style="overflow:visible">
      <path
         id="path3833"
         d="M 0.0,0.0 L 5.0,-5.0 L -12.5,0.0 L 5.0,5.0 L 0.0,0.0 z "
         style="fill-rule:evenodd;stroke:#000000;stroke-width:1.0pt"
         transform="scale(0.4) translate(10,0)" />
    </marker>
    <marker
       inkscape:stockid="Arrow2Mstart"
       orient="auto"
       refY="0.0"
       refX="0.0"
       id="Arrow2Mstart"
       style="overflow:visible">
      <path
         id="path3851"
         style="fill-rule:evenodd;stroke-width:0.62500000;stroke-linejoin:round"
         d="M 8.7185878,4.0337352 L -2.2072895,0.016013256 L 8.7185884,-4.0017078 C 6.9730900,-1.6296469 6.9831476,1.6157441 8.7185878,4.0337352 z "
         transform="scale(0.6) translate(0,0)" />
    </marker>
    <marker
       inkscape:stockid="Arrow1Mend"
       orient="auto"
       refY="0.0"
       refX="0.0"
       id="Arrow1Mend"
       style="overflow:visible;">
      <path
         id="path3836"
         d="M 0.0,0.0 L 5.0,-5.0 L -12.5,0.0 L 5.0,5.0 L 0.0,0.0 z "
         style="fill-rule:evenodd;stroke:#000000;stroke-width:1.0pt;"
         transform="scale(0.4) rotate(180) translate(10,0)" />
    </marker>
  </defs>
  <sodipodi:namedview
     id="base"
     pagecolor="#ffffff"
     bordercolor="#666666"
     borderopacity="1.0"
     inkscape:pageopacity="0.0"
     inkscape:pageshadow="2"
     inkscape:zoom="0.9899495"
     inkscape:cx="401.89061"
     inkscape:cy="160.20165"
     inkscape:document-units="px"
     inkscape:current-layer="g3962"
     showgrid="false"
     showguides="true"
     inkscape:guide-bbox="true"
     inkscape:window-width="1440"
     inkscape:window-height="834"
     inkscape:window-x="0"
     inkscape:window-y="27"
     inkscape:window-maximized="1"
     fit-margin-top="0"
     fit-margin-left="0"
     fit-margin-right="0"
     fit-margin-bottom="0">
    <sodipodi:guide
       orientation="0,1"
       position="487.94545,117.30333"
       id="guide3956" />
    <sodipodi:guide
       orientation="0,1"
       position="605.12314,257.71454"
       id="guide3958" />
    <sodipodi:guide
       orientation="0,1"
       position="487.94545,188.01401"
       id="guide3960" />
    <sodipodi:guide
       orientation="1,0"
       position="417.69807,-100.0051"
       id="guide4315" />
    <sodipodi:guide
       orientation="0,1"
       position="513.15749,-19.192898"
       id="guide4317" />
  </sodipodi:namedview>
  <metadata
     id="metadata7">
    <rdf:RDF>
      <cc:Work
         rdf:about="">
        <dc:format>image/svg+xml</dc:format>
        <dc:type
           rdf:resource="http://purl.org/dc/dcmitype/StillImage" />
        <dc:title></dc:title>
      </cc:Work>
    </rdf:RDF>
  </metadata>
  <g
     style="display:inline"
     inkscape:label="tubo-orizzontale-contorno copy"
     id="g3952"
     inkscape:groupmode="layer"
     transform="translate(-77.739981,-14.151085)">
    <path
       style="fill:#e6e6e6;fill-opacity:1;fill-rule:nonzero;stroke:#000000;stroke-width:2;stroke-miterlimit:4;stroke-opacity:1;stroke-dasharray:none;display:inline"
       d="m 320.46495,557.72534 332.85715,0 m 0,43.42856 -332.85715,0"
       id="path3954"
       inkscape:connector-curvature="0"
       sodipodi:nodetypes="cccc"
       inkscape:export-filename="/home/nicola/Documents/repos/diario-in-codice-website/assets/images/appendice_A/vasi_comunicanti_03.png"
       inkscape:export-xdpi="115.923"
       inkscape:export-ydpi="115.923" />
  </g>
  <g
     inkscape:label="containers"
     inkscape:groupmode="layer"
     id="layer1"
     transform="translate(-77.739981,-322.41878)"
     style="display:inline">
    <path
       transform="translate(0,308.2677)"
       style="fill:#e6e6e6;fill-opacity:1;fill-rule:nonzero;stroke:#000000;stroke-width:2;stroke-miterlimit:4;stroke-opacity:1;stroke-dasharray:none"
       d="m 94.285713,315.52304 c 82.857147,-24.28571 172.857137,-26.42857 252.857147,0 l 0,301.42856 -252.857147,0 z"
       id="rect3753"
       inkscape:connector-curvature="0"
       sodipodi:nodetypes="ccccc"
       inkscape:export-filename="/home/nicola/Documents/repos/diario-in-codice-website/assets/images/appendice_A/vasi_comunicanti_03.png"
       inkscape:export-xdpi="115.923"
       inkscape:export-ydpi="115.923" />
    <path
       sodipodi:nodetypes="ccccc"
       inkscape:connector-curvature="0"
       id="path3782"
       d="m 634.28571,623.79074 c 82.85715,-24.28571 172.85714,-26.42857 252.85715,0 l 0,301.42856 -252.85715,0 z"
       style="fill:#e6e6e6;fill-opacity:1;fill-rule:nonzero;stroke:#000000;stroke-width:2;stroke-miterlimit:4;stroke-opacity:1;stroke-dasharray:none"
       inkscape:export-filename="/home/nicola/Documents/repos/diario-in-codice-website/assets/images/appendice_A/vasi_comunicanti_03.png"
       inkscape:export-xdpi="115.923"
       inkscape:export-ydpi="115.923" />
  </g>
  <g
     inkscape:groupmode="layer"
     id="layer10"
     inkscape:label="turbina-sfondo"
     style="display:inline">
    <path
       sodipodi:type="arc"
       style="fill:#e6e6e6;fill-opacity:1;fill-rule:nonzero;stroke:#000000;stroke-width:2;stroke-miterlimit:4;stroke-opacity:1;stroke-dasharray:none;display:inline"
       id="path4311"
       sodipodi:cx="422.14285"
       sodipodi:cy="624.51428"
       sodipodi:rx="80.714287"
       sodipodi:ry="80.714287"
       d="m 502.85714,624.51428 a 80.714287,80.714287 0 1 1 -161.42857,0 80.714287,80.714287 0 1 1 161.42857,0 z"
       transform="translate(-4.4447828,0.5765188)"
       inkscape:export-filename="/home/nicola/Documents/repos/diario-in-codice-website/assets/images/appendice_A/vasi_comunicanti_03.png"
       inkscape:export-xdpi="115.923"
       inkscape:export-ydpi="115.923" />
  </g>
  <g
     inkscape:groupmode="layer"
     id="layer3"
     inkscape:label="tubo-orizzontale-contorno"
     style="display:inline"
     transform="translate(-77.739981,-14.151085)">
    <path
       sodipodi:nodetypes="ccccc"
       inkscape:connector-curvature="0"
       id="path3788"
       d="m 653.3221,600.15348 -332.85715,0 0,-41.329 332.85715,0 z"
       style="fill:#e6e6e6;fill-opacity:1;fill-rule:nonzero;stroke:none;display:inline"
       inkscape:export-filename="/home/nicola/Documents/repos/diario-in-codice-website/assets/images/appendice_A/vasi_comunicanti_03.png"
       inkscape:export-xdpi="115.923"
       inkscape:export-ydpi="115.923" />
  </g>
  <g
     style="display:inline"
     inkscape:label="tubo-orizzontale-water"
     id="g3974"
     inkscape:groupmode="layer"
     transform="translate(-77.739981,-14.151085)">
    <path
       style="fill:#47e3ff;fill-opacity:1;fill-rule:nonzero;stroke:none;display:inline"
       d="m 653.3221,598.15348 -332.85715,0 0,-37.529 332.85715,0 z"
       id="path3976"
       inkscape:connector-curvature="0"
       sodipodi:nodetypes="ccccc"
       inkscape:export-filename="/home/nicola/Documents/repos/diario-in-codice-website/assets/images/appendice_A/vasi_comunicanti_03.png"
       inkscape:export-xdpi="115.923"
       inkscape:export-ydpi="115.923" />
  </g>
  <g
     inkscape:groupmode="layer"
     id="layer6"
     inkscape:label="rubinetto-rosso"
     style="display:none"
     transform="translate(-77.739981,-14.151085)">
    <path
       style="fill:#b3b3b3;fill-opacity:1;fill-rule:nonzero;stroke:none;display:inline"
       d="m 469.82142,554.05186 53.92858,0 c -11.78571,25.71429 0,49.64286 0,49.64286 l -53.92858,0 c 0,0 -11.78571,-21.42857 0,-49.64286 z"
       id="rect3891"
       inkscape:connector-curvature="0"
       sodipodi:nodetypes="ccccc" />
    <path
       sodipodi:nodetypes="ccccc"
       inkscape:connector-curvature="0"
       id="path3926"
       d="m 490.31394,534.29005 12.85714,0 0,25.42856 c -7.32361,5.80838 -12.85714,0 -12.85714,0 z"
       style="fill:#808080;fill-opacity:1;fill-rule:nonzero;stroke:none;display:inline" />
    <path
       sodipodi:nodetypes="ccccc"
       inkscape:connector-curvature="0"
       id="path3920"
       d="m 484.04232,535.20777 -15.05871,-4.87905 c -19.48432,4.96971 -5.81295,-24.68961 3.15515,-9.11206 l 15.73369,5.11277 z"
       style="fill:#ff0000;stroke:#000000;stroke-width:1px;stroke-linecap:butt;stroke-linejoin:miter;stroke-opacity:1" />
    <path
       sodipodi:nodetypes="ccccc"
       inkscape:connector-curvature="0"
       id="path3922"
       d="m 505.95793,525.29012 9.49682,-4.05166 c 12.31861,-15.89304 23.3665,14.57254 3.10966,9.12769 l -10.17296,4.28201 z"
       style="fill:#ff0000;stroke:#000000;stroke-width:1px;stroke-linecap:butt;stroke-linejoin:miter;stroke-opacity:1" />
    <path
       sodipodi:nodetypes="ccccc"
       inkscape:connector-curvature="0"
       id="path3889"
       d="m 480.98524,522.78487 c 17.42513,-11.61675 32.85714,0 32.85714,0 l 0,21.42856 c -18.56155,6.69226 -32.85714,0 -32.85714,0 z"
       style="fill:#d40000;fill-opacity:1;fill-rule:nonzero;stroke:#000000;stroke-width:2;stroke-miterlimit:4;stroke-opacity:1;stroke-dasharray:none;display:inline" />
    <path
       style="fill:none;stroke:#ffffff;stroke-width:2;stroke-linecap:round;stroke-linejoin:miter;stroke-miterlimit:4;stroke-opacity:1;stroke-dasharray:none"
       d="m 483.78063,525.05759 c 0,0 11.53255,6.56599 27.82126,-0.75761"
       id="path3916"
       inkscape:connector-curvature="0"
       sodipodi:nodetypes="cc" />
    <path
       style="fill:#ff0000;stroke:#000000;stroke-width:1px;stroke-linecap:butt;stroke-linejoin:miter;stroke-opacity:1"
       d="m 509.56608,530.1489 13.85014,5.54891 c 18.84509,-3.359 8.50362,23.79652 -3.14074,9.11705 L 505.75,539.03329 c 0,0 -3.12872,-6.35901 3.81608,-8.88439 z"
       id="path3918"
       inkscape:connector-curvature="0"
       sodipodi:nodetypes="ccccc" />
    <path
       style="fill:#ff0000;stroke:#000000;stroke-width:1px;stroke-linecap:butt;stroke-linejoin:miter;stroke-opacity:1"
       d="m 488.5109,540.51543 -15.98672,5.29855 c -12.69226,15.59626 -19.37369,-16.37154 -2.8922,-9.1989 l 16.66813,-5.5128 c 6.31345,4.04061 2.21079,9.41315 2.21079,9.41315 z"
       id="path3924"
       inkscape:connector-curvature="0"
       sodipodi:nodetypes="ccccc" />
  </g>
  <g
     inkscape:groupmode="layer"
     id="layer11"
     inkscape:label="turbina-pale"
     style="display:inline">
    <path
       sodipodi:type="arc"
       style="fill:#47e3ff;fill-opacity:1;fill-rule:nonzero;stroke:none;display:inline"
       id="path4311-3"
       sodipodi:cx="422.14285"
       sodipodi:cy="624.51428"
       sodipodi:rx="80.714287"
       sodipodi:ry="80.714287"
       d="m 502.85714,624.51428 a 80.714287,80.714287 0 1 1 -161.42857,0 80.714287,80.714287 0 1 1 161.42857,0 z"
       transform="matrix(0.9522106,0,0,0.9522106,15.9791,30.678869)"
       inkscape:export-filename="/home/nicola/Documents/repos/diario-in-codice-website/assets/images/appendice_A/vasi_comunicanti_03.png"
       inkscape:export-xdpi="115.923"
       inkscape:export-ydpi="115.923" />
    <g
       transform="translate(0,-4.2070312e-6)"
       style="display:inline"
       id="g4336"
       inkscape:export-filename="/home/nicola/Documents/repos/diario-in-codice-website/assets/images/appendice_A/vasi_comunicanti_03.png"
       inkscape:export-xdpi="115.923"
       inkscape:export-ydpi="115.923">
      <path
         transform="matrix(2.093515,0,0,2.093515,-141.66217,-878.45438)"
         d="m 283.85287,717.18964 a 16.414978,16.414978 0 1 1 -32.82995,0 16.414978,16.414978 0 1 1 32.82995,0 z"
         sodipodi:ry="16.414978"
         sodipodi:rx="16.414978"
         sodipodi:cy="717.18964"
         sodipodi:cx="267.4379"
         id="path4313"
         style="fill:#000000;fill-opacity:1;fill-rule:nonzero;stroke:none"
         sodipodi:type="arc" />
      <path
         sodipodi:nodetypes="cccc"
         inkscape:connector-curvature="0"
         id="path4319"
         d="m 417.69807,546.22129 0,76.7716 -19.04364,-24.1917 c 0,0 -2.16956,-25.30578 19.04364,-52.5799 z"
         style="fill:#000000;fill-opacity:1;stroke:none" />
      <path
         inkscape:transform-center-y="-27.14286"
         inkscape:transform-center-x="27.14286"
         style="fill:#000000;fill-opacity:1;stroke:none"
         d="m 363.41235,568.70717 54.28572,54.28572 -30.572,-3.64023 c 0,0 -19.428,-16.35978 -23.71372,-50.64549 z"
         id="path4321"
         inkscape:connector-curvature="0"
         sodipodi:nodetypes="cccc" />
      <path
         sodipodi:nodetypes="cccc"
         inkscape:connector-curvature="0"
         id="path4323"
         d="m 340.92647,622.99289 76.7716,0 -24.1917,19.04364 c 0,0 -25.30578,2.16956 -52.5799,-19.04364 z"
         style="fill:#000000;fill-opacity:1;stroke:none"
         inkscape:transform-center-x="38.3858"
         inkscape:transform-center-y="9.5531013" />
      <path
         inkscape:transform-center-y="27.14286"
         inkscape:transform-center-x="27.14286"
         style="fill:#000000;fill-opacity:1;stroke:none"
         d="m 363.41235,677.27861 54.28572,-54.28572 -3.64023,30.572 c 0,0 -16.35978,19.428 -50.64549,23.71372 z"
         id="path4325"
         inkscape:connector-curvature="0"
         sodipodi:nodetypes="cccc" />
      <path
         sodipodi:nodetypes="cccc"
         inkscape:connector-curvature="0"
         id="path4327"
         d="m 417.69807,699.76449 0,-76.7716 19.04364,24.1917 c 0,0 2.16956,25.30578 -19.04364,52.5799 z"
         style="fill:#000000;fill-opacity:1;stroke:none"
         inkscape:transform-center-x="-9.5531013"
         inkscape:transform-center-y="38.3858" />
      <path
         inkscape:transform-center-y="27.14286"
         inkscape:transform-center-x="-27.14286"
         style="fill:#000000;fill-opacity:1;stroke:none"
         d="m 471.98379,677.27861 -54.28572,-54.28572 30.572,3.64023 c 0,0 19.428,16.35978 23.71372,50.64549 z"
         id="path4329"
         inkscape:connector-curvature="0"
         sodipodi:nodetypes="cccc" />
      <path
         sodipodi:nodetypes="cccc"
         inkscape:connector-curvature="0"
         id="path4331"
         d="m 494.46967,622.99289 -76.7716,0 24.1917,-19.04364 c 0,0 25.30578,-2.16956 52.5799,19.04364 z"
         style="fill:#000000;fill-opacity:1;stroke:none"
         inkscape:transform-center-x="-38.3858"
         inkscape:transform-center-y="-9.5531013" />
      <path
         inkscape:transform-center-y="-27.14286"
         inkscape:transform-center-x="-27.14286"
         style="fill:#000000;fill-opacity:1;stroke:none"
         d="m 471.98379,568.70717 -54.28572,54.28572 3.64023,-30.572 c 0,0 16.35978,-19.428 50.64549,-23.71372 z"
         id="path4333"
         inkscape:connector-curvature="0"
         sodipodi:nodetypes="cccc" />
    </g>
  </g>
  <g
     inkscape:groupmode="layer"
     id="layer2"
     inkscape:label="water-delta"
     style="display:inline"
     transform="translate(-77.739981,-14.151085)">
    <path
       style="fill:#47e3ff;fill-opacity:1;fill-rule:nonzero;stroke:none"
       d="m 98.230377,501.16589 c 0,0 31.071433,22.85714 61.071433,0 0,0 30.35714,22.50002 61.07143,0 0,0 30,22.50002 61.07143,0 30.35714,22.50002 61.07143,0 61.07143,0 l 0,112.57143 -244.285723,0 z"
       id="rect3756"
       inkscape:connector-curvature="0"
       sodipodi:nodetypes="cccccccc"
       inkscape:export-filename="/home/nicola/Documents/repos/diario-in-codice-website/assets/images/appendice_A/vasi_comunicanti_03.png"
       inkscape:export-xdpi="115.923"
       inkscape:export-ydpi="115.923" />
    <path
       sodipodi:nodetypes="cccccccc"
       inkscape:connector-curvature="0"
       id="path3843"
       d="m 638.23038,359.16589 c 32.82996,28.28427 61.07143,0 61.07143,0 31.8198,27.77919 61.07143,0 61.07143,0 32.82996,29.7995 61.07143,0 61.07143,0 33.33503,30.30458 61.07143,0 61.07143,0 l 0,254.57143 -244.28572,0 z"
       style="fill:#47e3ff;fill-opacity:1;fill-rule:nonzero;stroke:none"
       inkscape:export-filename="/home/nicola/Documents/repos/diario-in-codice-website/assets/images/appendice_A/vasi_comunicanti_03.png"
       inkscape:export-xdpi="115.923"
       inkscape:export-ydpi="115.923" />
  </g>
  <g
     style="display:none"
     inkscape:label="water-medium"
     id="g3962"
     inkscape:groupmode="layer"
     transform="translate(-77.739981,-14.151085)">
    <path
       sodipodi:nodetypes="cccccccc"
       inkscape:connector-curvature="0"
       id="path3964"
       d="m 98.230377,501.16589 c 0,0 31.071433,22.85714 61.071433,0 0,0 30.35714,22.50002 61.07143,0 0,0 30,22.50002 61.07143,0 30.35714,22.50002 61.07143,0 61.07143,0 l 0,112.57143 -244.285723,0 z"
       style="fill:#47e3ff;fill-opacity:1;fill-rule:nonzero;stroke:none"
       inkscape:export-filename="/home/nicola/Documents/repos/diario-in-codice-website/assets/images/appendice_A/vasi_comunicanti_01.png"
       inkscape:export-xdpi="115.923"
       inkscape:export-ydpi="115.923" />
    <path
       style="fill:#47e3ff;fill-opacity:1;fill-rule:nonzero;stroke:none"
       d="m 638.23038,501.16589 c 0,0 31.07143,22.85714 61.07143,0 0,0 30.35714,22.50002 61.07143,0 0,0 30,22.50002 61.07143,0 30.35714,22.50002 61.07143,0 61.07143,0 l 0,112.57143 -244.28572,0 z"
       id="path3966"
       inkscape:connector-curvature="0"
       sodipodi:nodetypes="cccccccc"
       inkscape:export-filename="/home/nicola/Documents/repos/diario-in-codice-website/assets/images/appendice_A/vasi_comunicanti_01.png"
       inkscape:export-xdpi="115.923"
       inkscape:export-ydpi="115.923" />
  </g>
  <g
     inkscape:label="tubo-verticale"
     id="g3946"
     inkscape:groupmode="layer"
     style="display:none"
     transform="translate(-77.739981,-14.151085)">
    <path
       sodipodi:nodetypes="cccc"
       inkscape:connector-curvature="0"
       id="path3950"
       d="m 204.03639,567.29677 -1e-5,-332.85715 23.42856,0 0,332.85715"
       style="fill:#e6e6e6;fill-opacity:1;fill-rule:nonzero;stroke:#000000;stroke-width:2;stroke-miterlimit:4;stroke-opacity:1;stroke-dasharray:none;display:inline" />
  </g>
  <g
     style="display:none"
     inkscape:groupmode="layer"
     id="g3982"
     inkscape:label="tubo-verticale-water"
     transform="translate(-77.739981,-14.151085)">
    <path
       style="fill:#47e3ff;fill-opacity:1;fill-rule:nonzero;stroke:none;display:inline"
       d="m 207.13601,567.29677 -1e-5,-332.85715 17.029,0 0,332.85715"
       id="path3984"
       inkscape:connector-curvature="0"
       sodipodi:nodetypes="cccc" />
    <path
       sodipodi:nodetypes="cccc"
       inkscape:connector-curvature="0"
       id="path3986"
       d="m 746.49656,415.42941 -2e-5,-231.63884 29.15083,0 0,231.63884"
       style="fill:#47e3ff;fill-opacity:1;fill-rule:nonzero;stroke:none;display:inline"
       inkscape:export-xdpi="114.61526"
       inkscape:export-ydpi="114.61526" />
    <path
       style="fill:#47e3ff;fill-opacity:1;stroke:none"
       d="m 737.16625,199.6402 c 0,0 -6.56986,29.33519 -16.65383,20.7791 -10.08398,-8.5561 16.65383,-20.7791 16.65383,-20.7791 z"
       id="path3816"
       inkscape:connector-curvature="0"
       sodipodi:nodetypes="czc" />
    <path
       sodipodi:nodetypes="czc"
       inkscape:connector-curvature="0"
       id="path3818"
       d="m 780.85848,206.5393 c 0,0 27.32972,12.52209 16.86502,20.60806 -10.46472,8.08599 -16.86502,-20.60806 -16.86502,-20.60806 z"
       style="fill:#47e3ff;fill-opacity:1;stroke:none" />
    <path
       style="fill:#47e3ff;fill-opacity:1;stroke:none"
       d="m 740.43152,234.98446 c 0,0 6.86686,29.26709 -5.9374,25.95898 -12.8043,-3.30812 5.9374,-25.95898 5.9374,-25.95898 z"
       id="path3820"
       inkscape:connector-curvature="0"
       sodipodi:nodetypes="czc" />
  </g>
  <g
     inkscape:groupmode="layer"
     id="layer4"
     inkscape:label="pompa"
     style="display:none"
     transform="translate(-77.739981,-14.151085)">
    <path
       sodipodi:nodetypes="ccccc"
       inkscape:connector-curvature="0"
       id="path3809"
       d="m 179.33384,68.898479 c 36.42857,-20.35714 72.85714,0 72.85714,0 l 0,181.428561 c -37.85714,17.85714 -72.85714,0 -72.85714,0 z"
       style="fill:#dadada;fill-opacity:1;fill-rule:nonzero;stroke:#000000;stroke-width:2;stroke-miterlimit:4;stroke-opacity:1;stroke-dasharray:none;display:inline" />
    <path
       style="fill:#c6c6c6;fill-opacity:1;fill-rule:nonzero;stroke:#000000;stroke-opacity:1;display:inline"
       d="m 209.33384,18.327049 12.85714,0 0,53.42856 -12.85714,0 z"
       id="path3811"
       inkscape:connector-curvature="0"
       sodipodi:nodetypes="ccccc" />
    <path
       style="fill:#aaaaaa;fill-opacity:1;stroke:#000000;stroke-opacity:1;display:inline"
       d="m 218.78628,28.600519 c -8.39286,3.92857 -48.24389,17.584 -56.07142,36.07143 -7.82753,18.48743 -28.47372,60.606271 -50.02644,77.467511 -21.552709,16.86124 -38.297619,7.0363 -33.679869,1.99332 4.61776,-5.04298 7.48359,5.5399 25.476269,-11.60293 17.99268,-17.14282 36.08718,-58.125761 47.87289,-78.572191 11.78571,-20.44643 55.19259,-40.22609 65.35713,-39.28571 10.16455,0.94038 9.46429,10 1.07144,13.92857 z"
       id="path3813"
       inkscape:connector-curvature="0"
       sodipodi:nodetypes="zzszszzz" />
    <path
       sodipodi:nodetypes="zzccz"
       inkscape:connector-curvature="0"
       id="path3815"
       d="m 155.76242,50.827049 c 6.90782,-10.46124 12.4354,-7.79576 12.85714,0.35714 0.42175,8.15291 -9,29.14285 9.57143,41.64285 L 177.83385,107.4699 C 151.04814,103.89847 148.8546,61.288289 155.76242,50.827049 z"
       style="fill:#c6c6c6;fill-opacity:1;fill-rule:nonzero;stroke:#000000;stroke-opacity:1;display:inline" />
    <path
       style="fill:none;stroke:#000000;stroke-width:2;stroke-linecap:butt;stroke-linejoin:miter;stroke-miterlimit:4;stroke-opacity:1;stroke-dasharray:none"
       d="m 180.04141,70.229299 c 34.10714,18.392857 72.6494,0 72.6494,0"
       id="path3793"
       inkscape:connector-curvature="0"
       sodipodi:nodetypes="cc" />
  </g>
  <g
     inkscape:groupmode="layer"
     id="layer5"
     inkscape:label="rubinetto"
     style="display:none"
     transform="translate(-77.739981,-14.151085)">
    <path
       sodipodi:nodetypes="czccccccccc"
       inkscape:connector-curvature="0"
       id="path3847"
       d="m 743.00001,182.95161 c 0,0 4.75087,-32.39623 -7.21429,-43.71429 -11.96516,-11.31806 -36.08231,-16.79079 -49.21429,-16.28571 l -440.42858,0 c 0,0 -10.10153,-9.79148 0,-23.428543 l 440.42858,-5e-6 c 19.69797,0.505078 49.6615,1.627078 69.21429,16.285708 19.55279,14.65863 23.21429,67.71429 23.21429,67.71429 7.07107,5.55584 2,9.85714 2,9.85714 l -36,-0.28573 c 0,0 -8.81853,-2.31418 -2,-10.14286 z"
       style="fill:#e6e6e6;fill-opacity:1;fill-rule:nonzero;stroke:#000000;stroke-opacity:1;display:inline" />
  </g>
  <g
     inkscape:groupmode="layer"
     id="layer7"
     inkscape:label="bordo-vasche"
     style="display:inline"
     transform="translate(-77.739981,-14.151085)">
    <path
       style="fill:none;stroke:#000000;stroke-width:2;stroke-linecap:butt;stroke-linejoin:miter;stroke-miterlimit:4;stroke-opacity:1;stroke-dasharray:none;display:inline"
       d="m 97.797051,318.34593 c 113.928569,47.5 246.233559,0 246.233559,0"
       id="path3780"
       inkscape:connector-curvature="0"
       sodipodi:nodetypes="cc"
       inkscape:export-filename="/home/nicola/Documents/repos/diario-in-codice-website/assets/images/appendice_A/vasi_comunicanti_03.png"
       inkscape:export-xdpi="115.923"
       inkscape:export-ydpi="115.923" />
    <path
       sodipodi:nodetypes="cc"
       inkscape:connector-curvature="0"
       id="path3784"
       d="m 637.79705,318.34593 c 113.92857,47.5 246.23354,0 246.23354,0"
       style="fill:none;stroke:#000000;stroke-width:2;stroke-linecap:butt;stroke-linejoin:miter;stroke-miterlimit:4;stroke-opacity:1;stroke-dasharray:none;display:inline"
       inkscape:export-filename="/home/nicola/Documents/repos/diario-in-codice-website/assets/images/appendice_A/vasi_comunicanti_03.png"
       inkscape:export-xdpi="115.923"
       inkscape:export-ydpi="115.923" />
  </g>
  <g
     inkscape:groupmode="layer"
     id="layer9"
     inkscape:label="arrow"
     style="display:inline">
    <g
       id="g4276"
       transform="matrix(0.88996896,0.26539432,-0.26094739,0.90513534,205.16764,-94.755242)"
       inkscape:export-filename="/home/nicola/Documents/repos/diario-in-codice-website/assets/images/appendice_A/vasi_comunicanti_03.png"
       inkscape:export-xdpi="115.923"
       inkscape:export-ydpi="115.923">
      <path
         style="font-size:medium;font-style:normal;font-variant:normal;font-weight:normal;font-stretch:normal;text-indent:0;text-align:start;text-decoration:none;line-height:normal;letter-spacing:normal;word-spacing:normal;text-transform:none;direction:ltr;block-progression:tb;writing-mode:lr-tb;text-anchor:start;baseline-shift:baseline;color:#000000;fill:#0086fe;fill-opacity:1;stroke:none;stroke-width:10;marker:none;visibility:visible;display:inline;overflow:visible;enable-background:accumulate;font-family:Sans;-inkscape-font-specification:Sans"
         d="m 660.35846,463.54167 c 0,0 -10.93434,39.40388 -89.68376,89.71957 l 7.37992,-17.92357 -54.16947,43.11924 68.86492,-8.08486 -20.20321,-7.94024 C 636.65748,543.49446 702.3166,482.16375 702.3166,482.16375 z"
         id="path3821"
         inkscape:connector-curvature="0"
         sodipodi:nodetypes="cccccccc" />
    </g>
    <g
       inkscape:export-ydpi="115.923"
       inkscape:export-xdpi="115.923"
       inkscape:export-filename="/home/nicola/Documents/repos/diario-in-codice-website/assets/images/appendice_A/vasi_comunicanti_03.png"
       transform="matrix(0.21186144,0.66932832,-0.67692639,0.22108212,432.54666,23.013564)"
       id="g5649">
      <path
         sodipodi:nodetypes="cccccccc"
         inkscape:connector-curvature="0"
         id="path5651"
         d="m 658.96594,405.46417 c 0,0 -6.12047,60.25057 -44.28014,84.6536 l 7.37992,-17.92357 -54.16947,43.11924 68.86492,-8.08486 -20.20321,-7.94024 C 680.23749,477.96177 698.90225,391.3698 698.90225,391.3698 z"
         style="font-size:medium;font-style:normal;font-variant:normal;font-weight:normal;font-stretch:normal;text-indent:0;text-align:start;text-decoration:none;line-height:normal;letter-spacing:normal;word-spacing:normal;text-transform:none;direction:ltr;block-progression:tb;writing-mode:lr-tb;text-anchor:start;baseline-shift:baseline;color:#000000;fill:#0086fe;fill-opacity:1;stroke:none;stroke-width:10;marker:none;visibility:visible;display:inline;overflow:visible;enable-background:accumulate;font-family:Sans;-inkscape-font-specification:Sans" />
    </g>
  </g>
  <g
     inkscape:groupmode="layer"
     id="layer8"
     inkscape:label="text G"
     style="opacity:0.50318472;display:none"
     transform="translate(-77.739981,-14.151085)">
    <text
       xml:space="preserve"
       style="font-size:72px;font-style:normal;font-weight:normal;line-height:125%;letter-spacing:0px;word-spacing:0px;fill:#000000;fill-opacity:1;stroke:none;font-family:'Tom\'s New Roman';-inkscape-font-specification:'Tom\'s New Roman'"
       x="194.28572"
       y="245.52304"
       id="text3839"
       sodipodi:linespacing="125%"><tspan
         sodipodi:role="line"
         id="tspan3841"
         x="194.28572"
         y="245.52304">G</tspan></text>
  </g>
  <g
     inkscape:groupmode="layer"
     id="layer12"
     inkscape:label="lines"
     style="display:inline">
    <path
       style="fill:none;stroke:#787878;stroke-width:4;stroke-linecap:butt;stroke-linejoin:miter;stroke-miterlimit:4;stroke-opacity:1;stroke-dasharray:12, 12;stroke-dashoffset:0"
       d="m 274.25131,486.49666 161.44676,0"
       id="path4475"
       inkscape:connector-curvature="0"
       sodipodi:nodetypes="cc"
       inkscape:export-filename="/home/nicola/Documents/repos/diario-in-codice-website/assets/images/appendice_A/vasi_comunicanti_03.png"
       inkscape:export-xdpi="115.923"
       inkscape:export-ydpi="115.923" />
    <path
       sodipodi:nodetypes="cc"
       inkscape:connector-curvature="0"
       id="path4477"
       d="m 394.25131,348.49666 161.44676,0"
       style="fill:none;stroke:#787878;stroke-width:4;stroke-linecap:butt;stroke-linejoin:miter;stroke-miterlimit:4;stroke-opacity:1;stroke-dasharray:12, 12;stroke-dashoffset:0"
       inkscape:export-filename="/home/nicola/Documents/repos/diario-in-codice-website/assets/images/appendice_A/vasi_comunicanti_03.png"
       inkscape:export-xdpi="115.923"
       inkscape:export-ydpi="115.923" />
    <path
       style="fill:none;stroke:#000000;stroke-width:3;stroke-linecap:butt;stroke-linejoin:miter;stroke-miterlimit:4;stroke-opacity:1;stroke-dasharray:none;marker-start:url(#Arrow2Mstart);marker-end:url(#Arrow2Mend)"
       d="m 417.69807,356.08545 0,122.41121"
       id="path4492"
       inkscape:connector-curvature="0"
       inkscape:export-filename="/home/nicola/Documents/repos/diario-in-codice-website/assets/images/appendice_A/vasi_comunicanti_03.png"
       inkscape:export-xdpi="115.923"
       inkscape:export-ydpi="115.923"
       sodipodi:nodetypes="cc" />
  </g>
  <g
     transform="translate(-77.739981,-14.151085)"
     style="opacity:0.7;display:inline"
     inkscape:label="text A and B"
     id="g3863"
     inkscape:groupmode="layer">
    <flowRoot
       xml:space="preserve"
       id="flowRoot3823"
       style="font-size:72px;font-style:normal;font-weight:normal;line-height:125%;letter-spacing:0px;word-spacing:0px;opacity:0.50318472;fill:#000000;fill-opacity:1;stroke:none;font-family:'Tom\'s New Roman';-inkscape-font-specification:'Tom\'s New Roman'"
       transform="translate(797.19868,329.01747)"
       inkscape:export-filename="/home/nicola/Documents/repos/diario-in-codice-website/assets/images/appendice_A/vasi_comunicanti_03.png"
       inkscape:export-xdpi="115.923"
       inkscape:export-ydpi="115.923"><flowRegion
         id="flowRegion3825"><rect
           id="rect3827"
           width="112.85714"
           height="105.71429"
           x="32.857143"
           y="205.52306" /></flowRegion><flowPara
         id="flowPara3829">A</flowPara></flowRoot>    <flowRoot
       transform="translate(70.05582,329.01747)"
       style="font-size:72px;font-style:normal;font-weight:normal;line-height:125%;letter-spacing:0px;word-spacing:0px;opacity:0.50318472;fill:#000000;fill-opacity:1;stroke:none;font-family:'Tom\'s New Roman';-inkscape-font-specification:'Tom\'s New Roman'"
       id="flowRoot3831"
       xml:space="preserve"
       inkscape:export-filename="/home/nicola/Documents/repos/diario-in-codice-website/assets/images/appendice_A/vasi_comunicanti_03.png"
       inkscape:export-xdpi="115.923"
       inkscape:export-ydpi="115.923"><flowRegion
         id="flowRegion3833"><rect
           y="205.52306"
           x="32.857143"
           height="105.71429"
           width="112.85714"
           id="rect3835" /></flowRegion><flowPara
         id="flowPara3837">B</flowPara></flowRoot>  </g>
  <g
     transform="translate(-77.739981,-14.151085)"
     style="display:inline"
     inkscape:label="text deltaU"
     id="g4878"
     inkscape:groupmode="layer">
    <rect
       style="fill:#ffffff;fill-opacity:1;fill-rule:nonzero;stroke:none"
       id="rect4897"
       width="101.01525"
       height="51.012703"
       x="367.19046"
       y="392.6781"
       transform="translate(77.739981,14.151085)"
       inkscape:export-filename="/home/nicola/Documents/repos/diario-in-codice-website/assets/images/appendice_A/vasi_comunicanti_03.png"
       inkscape:export-xdpi="115.923"
       inkscape:export-ydpi="115.923" />
    <g
       inkscape:export-ydpi="115.923"
       inkscape:export-xdpi="115.923"
       inkscape:export-filename="/home/nicola/Documents/repos/diario-in-codice-website/assets/images/appendice_A/vasi_comunicanti_03.png"
       style="fill:#ff0000;fill-opacity:1;display:inline"
       transform="translate(126.283,295.4631)"
       id="g6498">
      <g
         style="font-style:normal;font-variant:normal;font-weight:normal;font-stretch:normal;letter-spacing:normal;word-spacing:normal;text-anchor:start;fill:#ff0000;fill-opacity:1;stroke:#000000;stroke-linecap:butt;stroke-linejoin:miter;stroke-miterlimit:10.43299961;stroke-opacity:1;stroke-dasharray:none;stroke-dashoffset:0"
         id="g6500"
         transform="matrix(1.1486877,0,0,-1.1486877,-201.02035,622.2843)"
         xml:space="preserve"
         stroke-miterlimit="10.433"
         font-style="normal"
         font-variant="normal"
         font-weight="normal"
         font-stretch="normal"
         font-size-adjust="none"
         letter-spacing="normal"
         word-spacing="normal"><path
           style="fill:#ff0000;fill-opacity:1;stroke-width:0"
           inkscape:connector-curvature="0"
           d="m 477.54,440.98 -0.04,0.06 -0.03,0.06 -0.03,0.05 -0.02,0.05 -0.03,0.05 -0.03,0.05 -0.03,0.05 -0.02,0.04 -0.03,0.04 -0.03,0.04 -0.02,0.04 -0.03,0.03 -0.03,0.04 -0.03,0.03 -0.03,0.03 -0.03,0.03 -0.03,0.02 -0.04,0.03 -0.04,0.02 -0.03,0.02 -0.05,0.02 -0.04,0.01 -0.05,0.02 -0.04,0.01 -0.06,0.01 -0.05,0.01 -0.06,0.01 -0.06,0.01 -0.07,0 -0.07,0.01 -0.07,0 -0.04,0 -0.04,0 c -0.85,0 -0.94,-0.25 -1.28,-0.89 l -0.32,-4.09 13.41,-26.91 h -26.86 l 13.45,26.91 0.32,4.09 -16.85,-33.78 c -0.25,-0.45 -0.25,-0.55 -0.25,-0.59 0,-0.41 0.3,-0.41 1.1,-0.41 h 34.58 c 0.79,0 1.09,0 1.09,0.41 0,0.04 0,0.14 -0.25,0.59 z"
           id="path6502" /><path
           style="fill:#ff0000;fill-opacity:1;stroke-width:0"
           inkscape:connector-curvature="0"
           d="m 528.68,435 0.1,0.37 0.05,0.19 0.06,0.18 0.06,0.17 0.07,0.17 0.07,0.17 0.08,0.16 0.08,0.16 0.1,0.16 0.09,0.15 0.11,0.14 0.11,0.14 0.13,0.14 0.13,0.12 0.14,0.13 0.15,0.12 0.17,0.11 0.17,0.11 0.18,0.1 0.2,0.09 0.21,0.09 0.23,0.08 0.23,0.08 0.26,0.07 0.26,0.06 0.28,0.06 0.3,0.04 0.31,0.05 0.33,0.03 0.35,0.03 0.18,0.01 0.18,0 c 0.25,0 0.85,0.05 0.85,1 0,0.05 0,0.55 -0.64,0.55 -1.64,0 -3.39,-0.16 -5.08,-0.16 -1.7,0 -3.55,0.16 -5.19,0.16 -0.29,0 -0.89,0 -0.89,-1 0,-0.55 0.5,-0.55 0.89,-0.55 2.85,-0.04 3.39,-1.09 3.39,-2.18 0,-0.16 -0.11,-0.91 -0.15,-1.05 l -4.49,-17.8 c -1.69,-6.67 -7.42,-11 -12.4,-11 -3.38,0 -6.08,2.19 -6.08,6.47 0,0.11 0,1.7 0.54,3.89 l 4.85,19.38 c 0.44,1.79 0.55,2.29 4.19,2.29 1.28,0 1.68,0 1.68,1 0,0.55 -0.54,0.55 -0.7,0.55 -1.39,0 -4.98,-0.16 -6.37,-0.16 -1.44,0 -4.99,0.16 -6.43,0.16 -0.4,0 -0.95,0 -0.95,-1 0,-0.55 0.45,-0.55 1.41,-0.55 0.09,0 1.04,0 1.89,-0.09 0.89,-0.11 1.34,-0.16 1.34,-0.8 0,-0.31 -0.55,-2.39 -0.84,-3.54 l -1.11,-4.38 c -0.44,-1.95 -2.83,-11.36 -3.03,-12.31 -0.35,-1.39 -0.35,-2.14 -0.35,-2.89 0,-6.08 4.53,-9.56 9.77,-9.56 6.26,0 12.45,5.62 14.09,12.2 z"
           id="path6504" /></g>    </g>
  </g>
</svg>
