<?xml version="1.0" encoding="UTF-8" standalone="no"?>
<!-- Created with Inkscape (http://www.inkscape.org/) -->

<svg
   xmlns:dc="http://purl.org/dc/elements/1.1/"
   xmlns:cc="http://creativecommons.org/ns#"
   xmlns:rdf="http://www.w3.org/1999/02/22-rdf-syntax-ns#"
   xmlns:svg="http://www.w3.org/2000/svg"
   xmlns="http://www.w3.org/2000/svg"
   xmlns:sodipodi="http://sodipodi.sourceforge.net/DTD/sodipodi-0.dtd"
   xmlns:inkscape="http://www.inkscape.org/namespaces/inkscape"
   width="76.279884mm"
   height="142.7995mm"
   viewBox="0 0 270.28305 505.98248"
   id="svg4491"
   version="1.1"
   inkscape:version="0.91 r13725"
   sodipodi:docname="silhouette-malepointing.svg"
   inkscape:export-filename="/home/algot/Documents/runeman.org/clipart/silhouette-malepointing.png"
   inkscape:export-xdpi="53.344215"
   inkscape:export-ydpi="53.344215">
  <title
     id="title3364">Man Pointing</title>
  <defs
     id="defs4493" />
  <sodipodi:namedview
     id="base"
     pagecolor="#ffffff"
     bordercolor="#666666"
     borderopacity="1.0"
     inkscape:pageopacity="0.0"
     inkscape:pageshadow="2"
     inkscape:zoom="1.8027702"
     inkscape:cx="253.03224"
     inkscape:cy="380.86147"
     inkscape:document-units="px"
     inkscape:current-layer="layer1"
     showgrid="false"
     inkscape:window-width="1366"
     inkscape:window-height="712"
     inkscape:window-x="0"
     inkscape:window-y="0"
     inkscape:window-maximized="1"
     fit-margin-top="0"
     fit-margin-left="0"
     fit-margin-right="0"
     fit-margin-bottom="0" />
  <metadata
     id="metadata4496">
    <rdf:RDF>
      <cc:Work
         rdf:about="">
        <dc:format>image/svg+xml</dc:format>
        <dc:type
           rdf:resource="http://purl.org/dc/dcmitype/StillImage" />
        <dc:title>Man Pointing</dc:title>
        <dc:date>2016-08-26</dc:date>
        <dc:creator>
          <cc:Agent>
            <dc:title>Algot Runeman</dc:title>
          </cc:Agent>
        </dc:creator>
        <dc:rights>
          <cc:Agent>
            <dc:title>Algot Runeman</dc:title>
          </cc:Agent>
        </dc:rights>
        <dc:publisher>
          <cc:Agent>
            <dc:title>runeman.org</dc:title>
          </cc:Agent>
        </dc:publisher>
        <dc:identifier>silhouette-malepointing.svg</dc:identifier>
        <cc:license
           rdf:resource="http://creativecommons.org/publicdomain/zero/1.0/" />
      </cc:Work>
      <cc:License
         rdf:about="http://creativecommons.org/publicdomain/zero/1.0/">
        <cc:permits
           rdf:resource="http://creativecommons.org/ns#Reproduction" />
        <cc:permits
           rdf:resource="http://creativecommons.org/ns#Distribution" />
        <cc:permits
           rdf:resource="http://creativecommons.org/ns#DerivativeWorks" />
      </cc:License>
    </rdf:RDF>
  </metadata>
  <g
     inkscape:label="Layer 1"
     inkscape:groupmode="layer"
     id="layer1"
     transform="translate(-97.863412,-241.79289)">
    <g
       id="g3366"
       inkscape:export-xdpi="53.344215"
       inkscape:export-ydpi="53.344215">
      <path
         sodipodi:nodetypes="cccccccccccsssssssssssssccccccccccccccccccccccc"
         inkscape:connector-curvature="0"
         id="path4529"
         d="m 139.31412,328.19584 1.33528,-9.79205 0.44509,-8.01167 -0.89018,-4.00584 -6.23131,-11.57242 -2.22546,-4.00583 -3.56075,-8.90186 -1.33528,-4.45093 0.4451,-1.78038 1.33528,-2.22546 4.00583,-9.79205 c 0,0 2.24855,-5.10724 3.56075,-7.56658 0.81448,-1.52651 1.47657,-3.19873 2.67056,-4.45093 2.2149,-2.32289 4.93978,-4.41102 8.01167,-5.34112 0.56799,-0.17197 1.21437,0.17842 1.78037,0 1.72724,-0.54446 2.78575,-2.40364 4.45093,-3.11565 1.39118,-0.59485 2.94527,-0.74109 4.45093,-0.89018 1.0335,-0.10234 2.12166,-0.30095 3.11565,0 1.53595,0.46505 2.54924,1.99696 4.00584,2.67055 0.98036,0.45336 2.04018,0.99014 3.11565,0.89019 1.32132,-0.1228 2.30184,-1.36073 3.56075,-1.78037 1.57364,-0.52455 3.25716,-1.14635 4.89602,-0.89019 2.49194,0.38951 4.75376,1.92829 6.6764,3.56075 2.42037,2.05506 4.43431,4.69363 5.78621,7.56658 0.8428,1.79104 1.33527,5.78621 1.33527,5.78621 l -2.67055,3.11565 -4.89603,4.45093 5.78621,10.68223 0,2.22547 4.89603,0.44509 -0.89019,5.78621 -3.11565,6.2313 1.78037,4.00584 0,1.78037 -1.78037,0.89019 -3.11565,1.33528 0,1.78037 -1.78037,2.22546 2.22546,2.22547 0,2.22546 -1.78037,1.33528 -1.33528,2.22547 2.22546,2.67056 -1.78037,2.22546 -4.45093,2.67056 -5.34111,-0.44509 z"
         style="fill:#000000;fill-rule:evenodd;stroke:#000000;stroke-width:1px;stroke-linecap:butt;stroke-linejoin:miter;stroke-opacity:1" />
      <path
         sodipodi:nodetypes="cccccccccsssssssssssccccccccccsccscccccsssssssssssccccccscccccccccccccsscccccssssssssssssssssccccccccccccccccccccccccccccc"
         inkscape:connector-curvature="0"
         id="path4531"
         d="m 172.25195,318.4043 -31.60351,3.56054 -4.89453,3.11524 -3.56055,7.12109 -5.3418,8.90235 -16.91406,8.90234 -2.66992,2.66992 -8.457033,10.68164 -0.445313,8.90235 c 0,0 3.434826,12.14968 2.669926,18.25 -0.2399,1.91325 -1.846503,3.44904 -2.224613,5.33984 -0.290945,1.45492 -0.257524,2.98997 0,4.45117 0.301451,1.71045 0.848189,3.4316 1.781253,4.89649 0.56339,0.8845 1.84647,1.24647 2.22461,2.22461 1.12482,2.90956 -0.37108,6.22912 -0.44532,9.34765 -0.1024,4.30151 1.64658,8.93299 0,12.9082 -0.48165,1.16281 -2.33403,1.45696 -2.669918,2.66993 -0.326492,1.17904 0.162419,2.57746 0.890628,3.56054 0.51486,0.69506 2.03515,0.49197 2.22461,1.33594 0.23433,1.04388 -1.39932,1.67056 -1.78125,2.66992 -1.123617,2.94006 -1.333988,9.34766 -1.333988,9.34766 l 2.224608,-0.44531 9.34766,48.95898 -0.44532,3.5625 0,3.56055 5.3418,7.5664 5.33985,16.46875 3.11718,7.1211 8.90039,9.3457 4.00586,2.67188 c 0,0 3.11524,-0.88976 3.11524,0.89062 0,1.78037 82.78906,-53.41211 82.78906,-53.41211 l 6.23047,-6.67578 c 0,0 2.10237,-7.98071 1.78125,-12.01758 -0.46884,-5.8939 -5.3418,-16.91406 -5.3418,-16.91406 l 0,-3.11524 -6.23242,-21.36523 -4.44922,-25.81445 -0.44531,-23.14453 c 0,0 1.52356,0.16008 2.22461,0.44336 4.57893,1.85028 8.53331,5.0203 12.46289,8.01171 3.01008,2.29144 4.72698,6.93751 8.45703,7.56836 1.90208,0.32169 3.90066,-3.50894 5.3418,-2.22656 0.80684,0.71795 -1.02018,2.04302 -0.89063,3.11524 0.14344,1.18722 0.62756,2.79343 1.7793,3.11523 1.47103,0.41102 2.4787,-2.25008 4.00586,-2.22461 1.72993,0.0289 2.83102,2.06279 4.45117,2.66992 3.95172,1.48086 8.806,4.33278 12.46289,2.22656 1.50502,-0.86683 0.0529,-5.06776 1.78125,-4.89648 0,0 11.09239,-0.13493 16.4668,-1.33594 7.42291,-1.65879 21.36523,-8.01172 21.36523,-8.01172 l 17.35938,-7.12109 3.11523,-1.7793 1.7793,0.88868 8.01172,1.33593 6.67773,-0.44531 c 0,0 8.86025,-0.7807 11.12695,-4.00586 0.7678,-1.09246 0,-4.00586 0,-4.00586 l 3.56055,-2.22461 -2.22461,-4.00586 1.7793,0 2.22656,-2.22656 0,-2.22461 -4.89648,-3.56055 6.67578,-2.22656 7.5664,-2.66992 0,-2.66992 -1.77929,-0.44531 -4.45117,-0.44532 -14.68946,5.3418 c 0,0 -1.74514,-2.58728 -3.11523,-3.11719 -2.90879,-1.12503 -6.55367,-0.94438 -9.34571,0.44532 -1.03788,0.51659 -2.22656,2.67187 -2.22656,2.67187 l -9.3457,8.01172 -2.67188,0.88867 -6.23046,2.22656 -8.45704,1.7793 c 0,0 -9.11238,2.59444 -13.79882,3.11719 -4.12804,0.46047 -8.3513,1.397 -12.46094,2 -3.06521,0.44975 -6.41689,2.51933 -8.90234,0.66992 -0.47635,-0.35445 0.39178,-1.33511 0,-1.78125 -2.27094,-2.58602 -7.23983,0.35537 -10.23829,-1.33398 -0.82773,-0.46635 -1.13281,-1.53039 -1.77929,-2.22657 -1.92881,-2.07708 -3.70892,-4.49423 -6.23242,-5.78515 -2.02037,-1.03354 -5.00747,0.20251 -6.67579,-1.33594 -0.79397,-0.73216 -0.22419,-2.26536 -0.89062,-3.11524 -2.21414,-2.82362 -7.22773,-2.44534 -9.3457,-5.34179 -1.25373,-1.71455 -0.32078,-4.36474 -1.33594,-6.23047 -0.70188,-1.28995 -1.75849,-2.55325 -3.11524,-3.11524 -1.0965,-0.45419 -2.5237,0.57755 -3.56054,0 -3.2015,-1.78334 -3.77114,-6.28729 -5.78711,-9.34765 -0.99624,-1.51236 -2.46452,-2.76111 -3.11524,-4.45117 -0.42977,-1.11622 0.33046,-2.65015 -0.44531,-3.56055 -2.40552,-2.82299 -10.68164,-3.11523 -10.68164,-3.11523 l -9.34766,-3.11719 -4.00586,0 -6.67578,-0.44336 -7.5664,-2.67188 z m -44.50976,101.03515 1.77929,8.01172 -4.00586,-1.77929 z m 1.33398,15.57813 2.22656,0 1.7793,15.57812 0.44531,12.01758 -3.11523,9.34766 -4.89649,11.12695 0.44532,5.3418 2.22656,6.23047 -0.44531,5.78711 -2.67188,1.33398 -1.33398,-3.56055 -0.44531,-8.90039 0.44531,-7.12304 2.66992,-14.24219 0,-15.57813 3.11523,-4.00586 -2.66992,-5.78711 2.66992,-1.77929 z"
         style="fill:#000000;fill-rule:evenodd;stroke:#000000;stroke-width:1px;stroke-linecap:butt;stroke-linejoin:miter;stroke-opacity:1" />
      <path
         inkscape:connector-curvature="0"
         id="path3359"
         d="m 220.2168,495.99609 -86.53321,45.48633 0,16.08594 2.77344,21.63281 0,7.76563 6.10156,12.75781 -2.21875,4.99414 1.66407,4.4375 -0.55469,11.64844 -1.66406,4.4375 1.66406,12.75781 3.88281,14.97656 2.77344,7.21094 3.32812,6.65625 1.10938,23.85352 2.77344,14.97656 6.65625,10.53906 0.55468,3.32813 -7.21093,11.64843 -3.88282,7.76563 1.10938,5.54687 10.53906,2.77344 6.65625,0 9.98438,-4.4375 7.76562,-9.42969 2.2207,-0.55468 0,-10.53907 -3.33007,-4.4375 3.33007,-1.10937 2.77344,3.88281 -1.66406,8.875 7.21094,4.4375 3.88281,5.54688 6.65625,1.66406 12.20312,2.21875 7.21094,-2.21875 0,-4.4375 -4.4375,-12.20313 -2.21875,-2.21875 -4.99219,-12.75781 -2.21875,-2.21875 2.77344,-2.77344 0,-1.66406 4.4375,-6.65625 3.88281,-24.96289 1.66407,-23.29687 0,-21.07813 -1.66407,-6.65625 2.21875,-1.66406 -2.77343,-7.76563 1.66406,-5.54687 -1.66406,-60.46289 -1.10938,-43.26758 -3.32812,-5.54688 z m -40.49414,44.37696 0,8.32031 4.99218,12.20312 -0.55468,10.53907 3.88281,8.32031 -0.55469,14.97656 4.43945,3.32813 -0.55468,16.64257 4.4375,2.21876 -0.55469,11.64843 1.66406,2.77344 -3.32812,13.86719 -2.21875,19.96875 -1.10938,17.75195 0.55469,14.97656 0,5.54688 -4.43945,-8.875 -3.88282,-4.4375 2.21875,-8.875 -2.21875,-6.10352 0,-10.53906 -4.4375,-16.08594 -1.10937,-8.32031 0,-8.875 -3.88281,-7.76563 -1.66407,-5.54687 2.77344,-12.20313 0,-6.10351 -0.55469,-12.75781 -1.10937,-16.64063 3.88281,-23.85156 3.32813,-6.10156 z"
         style="fill:#000000;fill-rule:evenodd;stroke:#000000;stroke-width:1px;stroke-linecap:butt;stroke-linejoin:miter;stroke-opacity:1" />
    </g>
  </g>
</svg>
