<?xml version="1.0" encoding="UTF-8" standalone="no"?>
<!DOCTYPE svg PUBLIC "-//W3C//DTD SVG 1.1//EN"
 "http://www.w3.org/Graphics/SVG/1.1/DTD/svg11.dtd">
<!-- Generated by graphviz version 2.38.0 (20140413.2041)
 -->
<!-- Title: flusso Pages: 1 -->
<svg width="319pt" height="800pt"
 viewBox="0.00 0.00 28.74 72.00" xmlns="http://www.w3.org/2000/svg" xmlns:xlink="http://www.w3.org/1999/xlink">
<g id="graph0" class="graph" transform="scale(2.29226 2.29226) rotate(0) translate(4 345)">
<title>flusso</title>
<polygon fill="white" stroke="none" points="-4,4 -4,-345 135.288,-345 135.288,4 -4,4"/>
<!-- node0 -->
<g id="node1" class="node"><title>node0</title>
<ellipse fill="#ff4444" stroke="#ff4444" cx="65.6442" cy="-323" rx="42.7926" ry="18"/>
<text text-anchor="middle" x="65.6442" y="-319.3" font-family="Courier,monospace" font-size="14.00">inizio</text>
</g>
<!-- node1 -->
<g id="node2" class="node"><title>node1</title>
<ellipse fill="none" stroke="black" cx="65.6442" cy="-251" rx="61.99" ry="18"/>
<text text-anchor="middle" x="65.6442" y="-247.3" font-family="Times,serif" font-size="14.00">misura la base</text>
</g>
<!-- node0&#45;&gt;node1 -->
<g id="edge1" class="edge"><title>node0&#45;&gt;node1</title>
<path fill="none" stroke="black" d="M65.6442,-304.697C65.6442,-296.983 65.6442,-287.712 65.6442,-279.112"/>
<polygon fill="black" stroke="black" points="65.6442,-269.104 70.1443,-279.104 65.6442,-274.104 65.6443,-279.104 65.6443,-279.104 65.6443,-279.104 65.6442,-274.104 61.1443,-279.104 65.6442,-269.104 65.6442,-269.104"/>
</g>
<!-- node2 -->
<g id="node3" class="node"><title>node2</title>
<ellipse fill="none" stroke="black" cx="65.6442" cy="-179" rx="65.7887" ry="18"/>
<text text-anchor="middle" x="65.6442" y="-175.3" font-family="Times,serif" font-size="14.00">misura l&#39;altezza</text>
</g>
<!-- node1&#45;&gt;node2 -->
<g id="edge2" class="edge"><title>node1&#45;&gt;node2</title>
<path fill="none" stroke="black" d="M65.6442,-232.697C65.6442,-224.983 65.6442,-215.712 65.6442,-207.112"/>
<polygon fill="black" stroke="black" points="65.6442,-197.104 70.1443,-207.104 65.6442,-202.104 65.6443,-207.104 65.6443,-207.104 65.6443,-207.104 65.6442,-202.104 61.1443,-207.104 65.6442,-197.104 65.6442,-197.104"/>
</g>
<!-- node3 -->
<g id="node4" class="node"><title>node3</title>
<polygon fill="none" stroke="black" points="117.144,-125 14.1442,-125 14.1442,-72 117.144,-72 117.144,-125"/>
<text text-anchor="middle" x="65.6442" y="-109.8" font-family="Times,serif" font-size="14.00">calcola</text>
<text text-anchor="middle" x="65.6442" y="-94.8" font-family="Times,serif" font-size="14.00">base per altezza</text>
<text text-anchor="middle" x="65.6442" y="-79.8" font-family="Times,serif" font-size="14.00">diviso 2</text>
</g>
<!-- node2&#45;&gt;node3 -->
<g id="edge3" class="edge"><title>node2&#45;&gt;node3</title>
<path fill="none" stroke="black" d="M65.6442,-160.967C65.6442,-153.447 65.6442,-144.306 65.6442,-135.397"/>
<polygon fill="black" stroke="black" points="65.6442,-125.156 70.1443,-135.156 65.6442,-130.156 65.6443,-135.156 65.6443,-135.156 65.6443,-135.156 65.6442,-130.156 61.1443,-135.156 65.6442,-125.156 65.6442,-125.156"/>
</g>
<!-- node4 -->
<g id="node5" class="node"><title>node4</title>
<ellipse fill="#44ff44" stroke="#44ff44" cx="65.6442" cy="-18" rx="37.8943" ry="18"/>
<text text-anchor="middle" x="65.6442" y="-14.3" font-family="Courier,monospace" font-size="14.00">fine!</text>
</g>
<!-- node3&#45;&gt;node4 -->
<g id="edge4" class="edge"><title>node3&#45;&gt;node4</title>
<path fill="none" stroke="black" d="M65.6442,-71.7962C65.6442,-63.7126 65.6442,-54.7553 65.6442,-46.549"/>
<polygon fill="black" stroke="black" points="65.6442,-36.3304 70.1443,-46.3304 65.6442,-41.3304 65.6443,-46.3304 65.6443,-46.3304 65.6443,-46.3304 65.6442,-41.3304 61.1443,-46.3305 65.6442,-36.3304 65.6442,-36.3304"/>
</g>
</g>
</svg>
