<?xml version="1.0" encoding="UTF-8" standalone="no"?>
<!DOCTYPE svg PUBLIC "-//W3C//DTD SVG 1.1//EN"
 "http://www.w3.org/Graphics/SVG/1.1/DTD/svg11.dtd">
<!-- Generated by graphviz version 2.38.0 (20140413.2041)
 -->
<!-- Title: flusso Pages: 1 -->
<svg width="134pt" height="800pt"
 viewBox="0.00 0.00 12.03 72.00" xmlns="http://www.w3.org/2000/svg" xmlns:xlink="http://www.w3.org/1999/xlink">
<g id="graph0" class="graph" transform="scale(0.659522 0.659522) rotate(0) translate(4 1209)">
<title>flusso</title>
<polygon fill="white" stroke="none" points="-4,4 -4,-1209 198.643,-1209 198.643,4 -4,4"/>
<!-- node0 -->
<g id="node1" class="node"><title>node0</title>
<ellipse fill="#ff4444" stroke="#ff4444" cx="111.643" cy="-1187" rx="42.7926" ry="18"/>
<text text-anchor="middle" x="111.643" y="-1183.3" font-family="Courier,monospace" font-size="14.00">inizio</text>
</g>
<!-- node1 -->
<g id="node2" class="node"><title>node1</title>
<polygon fill="none" stroke="black" points="162.143,-1132 61.1433,-1132 61.1433,-1094 162.143,-1094 162.143,-1132"/>
<text text-anchor="middle" x="111.643" y="-1116.8" font-family="Times,serif" font-size="14.00">riempi una</text>
<text text-anchor="middle" x="111.643" y="-1101.8" font-family="Times,serif" font-size="14.00">pentola d&#39;acqua</text>
</g>
<!-- node0&#45;&gt;node1 -->
<g id="edge1" class="edge"><title>node0&#45;&gt;node1</title>
<path fill="none" stroke="black" d="M111.643,-1168.94C111.643,-1160.99 111.643,-1151.31 111.643,-1142.31"/>
<polygon fill="black" stroke="black" points="111.643,-1132.2 116.143,-1142.2 111.643,-1137.2 111.643,-1142.2 111.643,-1142.2 111.643,-1142.2 111.643,-1137.2 107.143,-1142.2 111.643,-1132.2 111.643,-1132.2"/>
</g>
<!-- node2 -->
<g id="node3" class="node"><title>node2</title>
<polygon fill="none" stroke="black" points="181.143,-1057 42.1433,-1057 42.1433,-1019 181.143,-1019 181.143,-1057"/>
<text text-anchor="middle" x="111.643" y="-1041.8" font-family="Times,serif" font-size="14.00">poggiala sul fornello e</text>
<text text-anchor="middle" x="111.643" y="-1026.8" font-family="Times,serif" font-size="14.00">accendi la fiamma</text>
</g>
<!-- node1&#45;&gt;node2 -->
<g id="edge2" class="edge"><title>node1&#45;&gt;node2</title>
<path fill="none" stroke="black" d="M111.643,-1093.96C111.643,-1085.88 111.643,-1076.18 111.643,-1067.18"/>
<polygon fill="black" stroke="black" points="111.643,-1057.09 116.143,-1067.09 111.643,-1062.09 111.643,-1067.09 111.643,-1067.09 111.643,-1067.09 111.643,-1062.09 107.143,-1067.09 111.643,-1057.09 111.643,-1057.09"/>
</g>
<!-- node3 -->
<g id="node4" class="node"><title>node3</title>
<polygon fill="none" stroke="black" points="157.143,-982 66.1433,-982 66.1433,-946 157.143,-946 157.143,-982"/>
<text text-anchor="middle" x="111.643" y="-960.3" font-family="Times,serif" font-size="14.00">aspetta un po&#39;</text>
</g>
<!-- node2&#45;&gt;node3 -->
<g id="edge3" class="edge"><title>node2&#45;&gt;node3</title>
<path fill="none" stroke="black" d="M111.643,-1018.83C111.643,-1010.89 111.643,-1001.41 111.643,-992.628"/>
<polygon fill="black" stroke="black" points="111.643,-982.418 116.143,-992.418 111.643,-987.418 111.643,-992.418 111.643,-992.418 111.643,-992.418 111.643,-987.418 107.143,-992.418 111.643,-982.418 111.643,-982.418"/>
</g>
<!-- node4 -->
<g id="node5" class="node"><title>node4</title>
<polygon fill="none" stroke="black" points="83.6433,-895 -0.143556,-877 83.6433,-859 167.43,-877 83.6433,-895"/>
<text text-anchor="middle" x="83.6433" y="-873.3" font-family="Times,serif" font-size="14.00">l&#39;acqua bolle?</text>
</g>
<!-- node3&#45;&gt;node4 -->
<g id="edge4" class="edge"><title>node3&#45;&gt;node4</title>
<path fill="none" stroke="black" d="M105.977,-945.799C102.004,-933.738 96.6233,-917.403 92.1387,-903.79"/>
<polygon fill="black" stroke="black" points="88.9222,-894.025 96.3251,-902.115 90.4866,-898.774 92.051,-903.523 92.051,-903.523 92.051,-903.523 90.4866,-898.774 87.777,-904.931 88.9222,-894.025 88.9222,-894.025"/>
</g>
<!-- node4&#45;&gt;node3 -->
<g id="edge5" class="edge"><title>node4:e&#45;&gt;node3:ne</title>
<path fill="none" stroke="black" d="M168.643,-877C172.545,-877 178.168,-962.3 167.689,-981.837"/>
<polygon fill="black" stroke="black" points="157.643,-983 167.06,-977.38 162.61,-982.425 167.577,-981.85 167.577,-981.85 167.577,-981.85 162.61,-982.425 168.094,-986.32 157.643,-983 157.643,-983"/>
<text text-anchor="middle" x="182.143" y="-916.8" font-family="Times,serif" font-size="14.00">No</text>
</g>
<!-- node5 -->
<g id="node6" class="node"><title>node5</title>
<polygon fill="none" stroke="black" points="124.143,-808 43.1433,-808 43.1433,-772 124.143,-772 124.143,-808"/>
<text text-anchor="middle" x="83.6433" y="-786.3" font-family="Times,serif" font-size="14.00">metti il sale</text>
</g>
<!-- node4&#45;&gt;node5 -->
<g id="edge6" class="edge"><title>node4&#45;&gt;node5</title>
<path fill="none" stroke="black" d="M83.6433,-858.799C83.6433,-847.163 83.6433,-831.548 83.6433,-818.237"/>
<polygon fill="black" stroke="black" points="83.6433,-808.175 88.1434,-818.175 83.6434,-813.175 83.6434,-818.175 83.6434,-818.175 83.6434,-818.175 83.6434,-813.175 79.1434,-818.175 83.6433,-808.175 83.6433,-808.175"/>
<text text-anchor="middle" x="89.6433" y="-829.8" font-family="Times,serif" font-size="14.00">Sì</text>
</g>
<!-- node6 -->
<g id="node7" class="node"><title>node6</title>
<polygon fill="none" stroke="black" points="128.143,-735 39.1433,-735 39.1433,-699 128.143,-699 128.143,-735"/>
<text text-anchor="middle" x="83.6433" y="-713.3" font-family="Times,serif" font-size="14.00">butta la pasta</text>
</g>
<!-- node5&#45;&gt;node6 -->
<g id="edge7" class="edge"><title>node5&#45;&gt;node6</title>
<path fill="none" stroke="black" d="M83.6433,-771.813C83.6433,-763.789 83.6433,-754.047 83.6433,-745.069"/>
<polygon fill="black" stroke="black" points="83.6433,-735.029 88.1434,-745.029 83.6434,-740.029 83.6434,-745.029 83.6434,-745.029 83.6434,-745.029 83.6434,-740.029 79.1434,-745.029 83.6433,-735.029 83.6433,-735.029"/>
</g>
<!-- node7 -->
<g id="node8" class="node"><title>node7</title>
<polygon fill="none" stroke="black" points="129.143,-662 38.1433,-662 38.1433,-626 129.143,-626 129.143,-662"/>
<text text-anchor="middle" x="83.6433" y="-640.3" font-family="Times,serif" font-size="14.00">aspetta un po&#39;</text>
</g>
<!-- node6&#45;&gt;node7 -->
<g id="edge8" class="edge"><title>node6&#45;&gt;node7</title>
<path fill="none" stroke="black" d="M83.6433,-698.813C83.6433,-690.789 83.6433,-681.047 83.6433,-672.069"/>
<polygon fill="black" stroke="black" points="83.6433,-662.029 88.1434,-672.029 83.6434,-667.029 83.6434,-672.029 83.6434,-672.029 83.6434,-672.029 83.6434,-667.029 79.1434,-672.029 83.6433,-662.029 83.6433,-662.029"/>
</g>
<!-- node8 -->
<g id="node9" class="node"><title>node8</title>
<polygon fill="none" stroke="black" points="78.6433,-575 24.1818,-557 78.6433,-539 133.105,-557 78.6433,-575"/>
<text text-anchor="middle" x="78.6433" y="-553.3" font-family="Times,serif" font-size="14.00">è cotta?</text>
</g>
<!-- node7&#45;&gt;node8 -->
<g id="edge9" class="edge"><title>node7&#45;&gt;node8</title>
<path fill="none" stroke="black" d="M82.6315,-625.799C81.9425,-614.086 81.0164,-598.342 80.23,-584.974"/>
<polygon fill="black" stroke="black" points="79.6366,-574.885 84.7161,-584.604 79.9302,-579.877 80.2239,-584.868 80.2239,-584.868 80.2239,-584.868 79.9302,-579.877 75.7316,-585.132 79.6366,-574.885 79.6366,-574.885"/>
</g>
<!-- node8&#45;&gt;node7 -->
<g id="edge10" class="edge"><title>node8:e&#45;&gt;node7:ne</title>
<path fill="none" stroke="black" d="M133.643,-557C176.368,-557 165.748,-671.435 138.569,-668.08"/>
<polygon fill="black" stroke="black" points="129.643,-663 140.56,-664.036 133.989,-665.473 138.334,-667.946 138.334,-667.946 138.334,-667.946 133.989,-665.473 136.108,-671.857 129.643,-663 129.643,-663"/>
<text text-anchor="middle" x="170.143" y="-596.8" font-family="Times,serif" font-size="14.00">No</text>
</g>
<!-- node9 -->
<g id="node10" class="node"><title>node9</title>
<polygon fill="none" stroke="black" points="134.643,-488 22.6433,-488 22.6433,-452 134.643,-452 134.643,-488"/>
<text text-anchor="middle" x="78.6433" y="-466.3" font-family="Times,serif" font-size="14.00">spegni la fiamma</text>
</g>
<!-- node8&#45;&gt;node9 -->
<g id="edge11" class="edge"><title>node8&#45;&gt;node9</title>
<path fill="none" stroke="black" d="M78.6433,-538.799C78.6433,-527.163 78.6433,-511.548 78.6433,-498.237"/>
<polygon fill="black" stroke="black" points="78.6433,-488.175 83.1434,-498.175 78.6434,-493.175 78.6434,-498.175 78.6434,-498.175 78.6434,-498.175 78.6434,-493.175 74.1434,-498.175 78.6433,-488.175 78.6433,-488.175"/>
<text text-anchor="middle" x="84.6433" y="-509.8" font-family="Times,serif" font-size="14.00">Sì</text>
</g>
<!-- node10 -->
<g id="node11" class="node"><title>node10</title>
<polygon fill="none" stroke="black" points="109.643,-415 47.6433,-415 47.6433,-379 109.643,-379 109.643,-415"/>
<text text-anchor="middle" x="78.6433" y="-393.3" font-family="Times,serif" font-size="14.00">impiatta</text>
</g>
<!-- node9&#45;&gt;node10 -->
<g id="edge12" class="edge"><title>node9&#45;&gt;node10</title>
<path fill="none" stroke="black" d="M78.6433,-451.813C78.6433,-443.789 78.6433,-434.047 78.6433,-425.069"/>
<polygon fill="black" stroke="black" points="78.6433,-415.029 83.1434,-425.029 78.6434,-420.029 78.6434,-425.029 78.6434,-425.029 78.6434,-425.029 78.6434,-420.029 74.1434,-425.029 78.6433,-415.029 78.6433,-415.029"/>
</g>
<!-- node11 -->
<g id="node12" class="node"><title>node11</title>
<polygon fill="none" stroke="black" points="113.143,-342 44.1433,-342 44.1433,-306 113.143,-306 113.143,-342"/>
<text text-anchor="middle" x="78.6433" y="-320.3" font-family="Times,serif" font-size="14.00">filo d&#39;olio</text>
</g>
<!-- node10&#45;&gt;node11 -->
<g id="edge13" class="edge"><title>node10&#45;&gt;node11</title>
<path fill="none" stroke="black" d="M78.6433,-378.813C78.6433,-370.789 78.6433,-361.047 78.6433,-352.069"/>
<polygon fill="black" stroke="black" points="78.6433,-342.029 83.1434,-352.029 78.6434,-347.029 78.6434,-352.029 78.6434,-352.029 78.6434,-352.029 78.6434,-347.029 74.1434,-352.029 78.6433,-342.029 78.6433,-342.029"/>
</g>
<!-- node12 -->
<g id="node13" class="node"><title>node12</title>
<polygon fill="none" stroke="black" points="78.6433,-269 5.07813,-251 78.6433,-233 152.208,-251 78.6433,-269"/>
<text text-anchor="middle" x="78.6433" y="-247.3" font-family="Times,serif" font-size="14.00">formaggio?</text>
</g>
<!-- node11&#45;&gt;node12 -->
<g id="edge14" class="edge"><title>node11&#45;&gt;node12</title>
<path fill="none" stroke="black" d="M78.6433,-305.813C78.6433,-297.789 78.6433,-288.047 78.6433,-279.069"/>
<polygon fill="black" stroke="black" points="78.6433,-269.029 83.1434,-279.029 78.6434,-274.029 78.6434,-279.029 78.6434,-279.029 78.6434,-279.029 78.6434,-274.029 74.1434,-279.029 78.6433,-269.029 78.6433,-269.029"/>
</g>
<!-- node13 -->
<g id="node14" class="node"><title>node13</title>
<polygon fill="none" stroke="black" points="194.643,-182 112.643,-182 112.643,-146 194.643,-146 194.643,-182"/>
<text text-anchor="middle" x="153.643" y="-160.3" font-family="Times,serif" font-size="14.00">grattuggiare</text>
</g>
<!-- node12&#45;&gt;node13 -->
<g id="edge16" class="edge"><title>node12:e&#45;&gt;node13</title>
<path fill="none" stroke="black" d="M153.643,-251C177.633,-251 171.509,-217.124 163.623,-191.894"/>
<polygon fill="black" stroke="black" points="160.455,-182.403 167.89,-190.464 162.038,-187.146 163.621,-191.889 163.621,-191.889 163.621,-191.889 162.038,-187.146 159.352,-193.314 160.455,-182.403 160.455,-182.403"/>
<text text-anchor="middle" x="174.643" y="-203.8" font-family="Times,serif" font-size="14.00">Sì</text>
</g>
<!-- node14 -->
<g id="node15" class="node"><title>node14</title>
<polygon fill="none" stroke="black" points="149.643,-109 55.6433,-109 55.6433,-73 149.643,-73 149.643,-109"/>
<text text-anchor="middle" x="102.643" y="-87.3" font-family="Times,serif" font-size="14.00">servi in tavola</text>
</g>
<!-- node12&#45;&gt;node14 -->
<g id="edge15" class="edge"><title>node12:s&#45;&gt;node14</title>
<path fill="none" stroke="black" d="M78.6433,-233C78.6433,-194.17 79.3147,-184.132 86.6433,-146 88.3489,-137.126 90.9084,-127.621 93.4829,-119.097"/>
<polygon fill="black" stroke="black" points="96.5743,-109.295 97.8579,-120.186 95.0703,-114.064 93.5663,-118.832 93.5663,-118.832 93.5663,-118.832 95.0703,-114.064 89.2747,-117.479 96.5743,-109.295 96.5743,-109.295"/>
<text text-anchor="middle" x="95.1433" y="-160.3" font-family="Times,serif" font-size="14.00">No</text>
</g>
<!-- node13&#45;&gt;node14 -->
<g id="edge17" class="edge"><title>node13&#45;&gt;node14</title>
<path fill="none" stroke="black" d="M141.298,-145.813C135.158,-137.266 127.619,-126.769 120.833,-117.323"/>
<polygon fill="black" stroke="black" points="114.875,-109.029 124.364,-114.525 117.792,-113.09 120.709,-117.151 120.709,-117.151 120.709,-117.151 117.792,-113.09 117.055,-119.776 114.875,-109.029 114.875,-109.029"/>
</g>
<!-- node15 -->
<g id="node16" class="node"><title>node15</title>
<ellipse fill="#44ff44" stroke="#44ff44" cx="102.643" cy="-18" rx="64.189" ry="18"/>
<text text-anchor="middle" x="102.643" y="-14.3" font-family="Courier,monospace" font-size="14.00">si mangia!</text>
</g>
<!-- node14&#45;&gt;node15 -->
<g id="edge18" class="edge"><title>node14&#45;&gt;node15</title>
<path fill="none" stroke="black" d="M102.643,-72.8129C102.643,-64.7895 102.643,-55.0475 102.643,-46.0691"/>
<polygon fill="black" stroke="black" points="102.643,-36.0288 107.143,-46.0288 102.643,-41.0288 102.643,-46.0288 102.643,-46.0288 102.643,-46.0288 102.643,-41.0288 98.1434,-46.0289 102.643,-36.0288 102.643,-36.0288"/>
</g>
</g>
</svg>
