<?xml version="1.0" encoding="UTF-8" standalone="no"?>
<!-- Generated by graphviz version 2.38.0 (20140413.2041)
 -->

<!-- Title: flusso Pages: 1 -->

<svg
   xmlns:dc="http://purl.org/dc/elements/1.1/"
   xmlns:cc="http://creativecommons.org/ns#"
   xmlns:rdf="http://www.w3.org/1999/02/22-rdf-syntax-ns#"
   xmlns:svg="http://www.w3.org/2000/svg"
   xmlns="http://www.w3.org/2000/svg"
   xmlns:sodipodi="http://sodipodi.sourceforge.net/DTD/sodipodi-0.dtd"
   xmlns:inkscape="http://www.inkscape.org/namespaces/inkscape"
   width="6544.3555"
   height="3217.448"
   viewBox="0 0 470.02147 231.65625"
   id="svg2"
   version="1.1"
   inkscape:version="0.48.5 r10040"
   sodipodi:docname="diagramma-mod.svg"
   inkscape:export-filename="/home/nicola/Documents/repos/diario-in-codice-website/resources/diagramma-di-flusso/diagramma-mod.png"
   inkscape:export-xdpi="55.399994"
   inkscape:export-ydpi="55.399994">
  <metadata
     id="metadata267">
    <rdf:RDF>
      <cc:Work
         rdf:about="">
        <dc:format>image/svg+xml</dc:format>
        <dc:type
           rdf:resource="http://purl.org/dc/dcmitype/StillImage" />
        <dc:title></dc:title>
      </cc:Work>
    </rdf:RDF>
  </metadata>
  <defs
     id="defs265">
    <marker
       inkscape:stockid="Arrow1Mend"
       orient="auto"
       refY="0"
       refX="0"
       id="Arrow1Mend"
       style="overflow:visible">
      <path
         id="path4370"
         d="M 0,0 5,-5 -12.5,0 5,5 0,0 z"
         style="fill-rule:evenodd;stroke:#000000;stroke-width:1pt"
         transform="matrix(-0.4,0,0,-0.4,-4,0)"
         inkscape:connector-curvature="0" />
    </marker>
  </defs>
  <sodipodi:namedview
     pagecolor="#ffffff"
     bordercolor="#666666"
     borderopacity="1"
     objecttolerance="10"
     gridtolerance="10"
     guidetolerance="10"
     inkscape:pageopacity="0"
     inkscape:pageshadow="2"
     inkscape:window-width="1434"
     inkscape:window-height="833"
     id="namedview263"
     showgrid="false"
     showguides="true"
     inkscape:guide-bbox="true"
     inkscape:zoom="0.059"
     inkscape:cx="2047.6176"
     inkscape:cy="274.84416"
     inkscape:window-x="0"
     inkscape:window-y="27"
     inkscape:window-maximized="0"
     inkscape:current-layer="svg2"
     fit-margin-top="0"
     fit-margin-left="0"
     fit-margin-right="0"
     fit-margin-bottom="0">
    <sodipodi:guide
       orientation="1,0"
       position="756.5949,1386.4307"
       id="guide3244" />
    <sodipodi:guide
       orientation="0,1"
       position="3542.6581,30.377616"
       id="guide4863" />
    <sodipodi:guide
       orientation="0,1"
       position="3920.1812,3020.6002"
       id="guide4865" />
    <sodipodi:guide
       orientation="1,0"
       position="2985.362,1810.1293"
       id="guide4869" />
    <sodipodi:guide
       orientation="1,0"
       position="5182.2034,3419.0673"
       id="guide4871" />
    <sodipodi:guide
       orientation="0,1"
       position="3434.7943,3212.3582"
       id="guide4889" />
  </sodipodi:namedview>
  <g
     transform="matrix(0.659522,0,0,0.659522,159.64916,572.17912)"
     id="g3391"
     class="edge"
     inkscape:export-filename="/home/nicola/Documents/repos/diario-in-codice-website/resources/diagramma-di-flusso/g4881.png"
     inkscape:export-xdpi="28.173899"
     inkscape:export-ydpi="28.173899">
    <title
       id="title3393">node6-&gt;node7</title>
    <path
       d="m 83.6433,-698.813 c 0,8.024 0,17.766 0,26.744"
       id="path3395"
       inkscape:connector-curvature="0"
       style="fill:none;stroke:#000000" />
    <polygon
       points="83.6433,-662.029 83.6433,-662.029 83.6433,-662.029 88.1434,-672.029 83.6434,-667.029 83.6434,-672.029 83.6434,-672.029 83.6434,-672.029 83.6434,-667.029 79.1434,-672.029 "
       id="polygon3397"
       style="fill:#000000;stroke:#000000" />
  </g>
  <path
     style="fill:none;stroke:#000000;stroke-width:0.72000003;stroke-linecap:butt;stroke-linejoin:miter;stroke-miterlimit:4;stroke-opacity:1;stroke-dasharray:none;marker-start:none;marker-end:url(#Arrow1Mend)"
     d="m 420.15255,132.32966 21.82042,0 0,54.0883 -36.88864,0"
     id="path4848"
     inkscape:connector-curvature="0"
     sodipodi:nodetypes="cccc"
     inkscape:export-filename="/home/nicola/Documents/repos/diario-in-codice-website/resources/diagramma-di-flusso/g4881.png"
     inkscape:export-xdpi="28.173899"
     inkscape:export-ydpi="28.173899" />
  <g
     class="edge"
     id="edge1"
     transform="matrix(0.659522,0,0,0.659522,-18.85318,802.11901)"
     inkscape:export-filename="/home/nicola/Documents/repos/diario-in-codice-website/resources/diagramma-di-flusso/g4881.png"
     inkscape:export-xdpi="28.173899"
     inkscape:export-ydpi="28.173899">
    <title
       id="title26">node0-&gt;node1</title>
    <path
       style="fill:none;stroke:#000000"
       inkscape:connector-curvature="0"
       id="path28"
       d="m 111.643,-1168.94 c 0,7.95 0,17.63 0,26.63" />
    <polygon
       style="fill:#000000;stroke:#000000"
       id="polygon30"
       points="111.643,-1137.2 111.643,-1142.2 111.643,-1142.2 111.643,-1142.2 111.643,-1137.2 107.143,-1142.2 111.643,-1132.2 111.643,-1132.2 111.643,-1132.2 116.143,-1142.2 " />
  </g>
  <g
     class="node"
     id="node1"
     transform="matrix(0.659522,0,0,0.659522,-18.85318,812.19901)"
     inkscape:export-filename="/home/nicola/Documents/repos/diario-in-codice-website/resources/diagramma-di-flusso/g4881.png"
     inkscape:export-xdpi="28.173899"
     inkscape:export-ydpi="28.173899">
    <title
       id="title10">node0</title>
    <ellipse
       style="fill:#ff4444;stroke:#ff4444"
       sodipodi:ry="18"
       sodipodi:rx="42.792599"
       sodipodi:cy="-1187"
       sodipodi:cx="111.643"
       d="m 154.4356,-1187 c 0,9.9411 -19.1589,18 -42.7926,18 -23.633702,0 -42.792601,-8.0589 -42.792601,-18 0,-9.9411 19.158899,-18 42.792601,-18 23.6337,0 42.7926,8.0589 42.7926,18 z"
       id="ellipse12"
       ry="18"
       rx="42.792599"
       cy="-1187"
       cx="111.643" />
    <text
       style="font-size:14px;text-anchor:middle;font-family:'Courier,monospace'"
       id="text14"
       font-size="14.00"
       y="-1183.3"
       x="111.643">inizio</text>
  </g>
  <g
     class="node"
     id="node3"
     transform="matrix(0.659522,0,0,0.659522,-18.85318,792.61501)"
     inkscape:export-filename="/home/nicola/Documents/repos/diario-in-codice-website/resources/diagramma-di-flusso/g4881.png"
     inkscape:export-xdpi="28.173899"
     inkscape:export-ydpi="28.173899">
    <title
       id="title33">node2</title>
    <polygon
       style="fill:none;stroke:#000000"
       id="polygon35"
       points="181.143,-1057 42.1433,-1057 42.1433,-1019 181.143,-1019 181.143,-1057 " />
    <text
       style="font-size:14px;text-anchor:middle;font-family:'Times,serif'"
       id="text37"
       font-size="14.00"
       y="-1041.8"
       x="111.643">poggiala sul fornello e</text>
    <text
       style="font-size:14px;text-anchor:middle;font-family:'Times,serif'"
       id="text39"
       font-size="14.00"
       y="-1026.8"
       x="111.643">accendi la fiamma</text>
  </g>
  <g
     class="edge"
     id="edge2"
     transform="matrix(0.659522,0,0,0.659522,-18.85318,792.61501)"
     inkscape:export-filename="/home/nicola/Documents/repos/diario-in-codice-website/resources/diagramma-di-flusso/g4881.png"
     inkscape:export-xdpi="28.173899"
     inkscape:export-ydpi="28.173899">
    <title
       id="title42">node1-&gt;node2</title>
    <path
       style="fill:none;stroke:#000000"
       inkscape:connector-curvature="0"
       id="path44"
       d="m 111.643,-1093.96 c 0,8.08 0,17.78 0,26.78" />
    <polygon
       style="fill:#000000;stroke:#000000"
       id="polygon46"
       points="111.643,-1057.09 116.143,-1067.09 111.643,-1062.09 111.643,-1067.09 111.643,-1067.09 111.643,-1067.09 111.643,-1062.09 107.143,-1067.09 111.643,-1057.09 111.643,-1057.09 " />
  </g>
  <polygon
     points="162.143,-1132 162.143,-1132 61.1433,-1132 61.1433,-1094 162.143,-1094 "
     id="polygon19"
     style="fill:#ffffff;fill-opacity:1;stroke:#000000"
     transform="matrix(0.659522,0,0,0.659522,-18.85318,802.69501)"
     inkscape:export-filename="/home/nicola/Documents/repos/diario-in-codice-website/resources/diagramma-di-flusso/g4881.png"
     inkscape:export-xdpi="28.173899"
     inkscape:export-ydpi="28.173899" />
  <text
     x="54.777836"
     y="66.140808"
     font-size="14.00"
     id="text21"
     style="font-size:9.23330784px;text-anchor:middle;fill:#000000;fill-opacity:1;font-family:'Times,serif'"
     inkscape:export-filename="/home/nicola/Documents/repos/diario-in-codice-website/resources/diagramma-di-flusso/g4881.png"
     inkscape:export-xdpi="28.173899"
     inkscape:export-ydpi="28.173899">riempi una</text>
  <text
     x="54.777836"
     y="76.033638"
     font-size="14.00"
     id="text23"
     style="font-size:9.23330784px;text-anchor:middle;fill:#000000;fill-opacity:1;font-family:'Times,serif'"
     inkscape:export-filename="/home/nicola/Documents/repos/diario-in-codice-website/resources/diagramma-di-flusso/g4881.png"
     inkscape:export-xdpi="28.173899"
     inkscape:export-ydpi="28.173899">pentola d'acqua</text>
  <g
     class="node"
     id="node4"
     transform="matrix(0.659522,0,0,0.659522,-18.85318,792.61501)"
     inkscape:export-filename="/home/nicola/Documents/repos/diario-in-codice-website/resources/diagramma-di-flusso/g4881.png"
     inkscape:export-xdpi="28.173899"
     inkscape:export-ydpi="28.173899">
    <title
       id="title49">node3</title>
    <polygon
       style="fill:none;stroke:#000000"
       id="polygon51"
       points="157.143,-982 66.1433,-982 66.1433,-946 157.143,-946 157.143,-982 " />
    <text
       style="font-size:14px;text-anchor:middle;font-family:'Times,serif'"
       id="text53"
       font-size="14.00"
       y="-960.29999"
       x="111.643">aspetta un po'</text>
  </g>
  <g
     class="edge"
     id="edge3"
     transform="matrix(0.659522,0,0,0.659522,-18.85318,792.61501)"
     inkscape:export-filename="/home/nicola/Documents/repos/diario-in-codice-website/resources/diagramma-di-flusso/g4881.png"
     inkscape:export-xdpi="28.173899"
     inkscape:export-ydpi="28.173899">
    <title
       id="title56">node2-&gt;node3</title>
    <path
       style="fill:none;stroke:#000000"
       inkscape:connector-curvature="0"
       id="path58"
       d="m 111.643,-1018.83 c 0,7.94 0,17.42 0,26.202" />
    <polygon
       style="fill:#000000;stroke:#000000"
       id="polygon60"
       points="111.643,-982.418 116.143,-992.418 111.643,-987.418 111.643,-992.418 111.643,-992.418 111.643,-992.418 111.643,-987.418 107.143,-992.418 111.643,-982.418 111.643,-982.418 " />
  </g>
  <path
     d="m 54.311417,195.97818 c 0,7.67419 0,17.97263 0,26.75153"
     id="path95"
     inkscape:connector-curvature="0"
     style="fill:none;stroke:#000000;stroke-width:0.659522"
     inkscape:export-filename="/home/nicola/Documents/repos/diario-in-codice-website/resources/diagramma-di-flusso/g4881.png"
     inkscape:export-xdpi="28.173899"
     inkscape:export-ydpi="28.173899" />
  <polygon
     points="83.6433,-895 -0.143556,-877 83.6433,-859 167.43,-877 83.6433,-895 "
     id="polygon65"
     style="fill:#dcdcdc;fill-opacity:1;stroke:#000000"
     transform="matrix(0.659522,0,0,0.659522,-0.42118026,773.89501)"
     inkscape:export-filename="/home/nicola/Documents/repos/diario-in-codice-website/resources/diagramma-di-flusso/g4881.png"
     inkscape:export-xdpi="28.173899"
     inkscape:export-ydpi="28.173899" />
  <text
     x="62.588558"
     y="219.42365"
     font-size="14.00"
     id="text99"
     style="font-size:9.23330784px;text-anchor:middle;font-family:'Times,serif'"
     inkscape:export-filename="/home/nicola/Documents/repos/diario-in-codice-website/resources/diagramma-di-flusso/g4881.png"
     inkscape:export-xdpi="28.173899"
     inkscape:export-ydpi="28.173899">Sì</text>
  <g
     class="node"
     id="node7"
     transform="matrix(0.659522,0,0,0.659522,159.07316,536.03512)"
     inkscape:export-filename="/home/nicola/Documents/repos/diario-in-codice-website/resources/diagramma-di-flusso/g4881.png"
     inkscape:export-xdpi="28.173899"
     inkscape:export-ydpi="28.173899">
    <title
       id="title102">node6</title>
    <polygon
       style="fill:none;stroke:#000000"
       id="polygon104"
       points="39.1433,-735 39.1433,-699 128.143,-699 128.143,-735 128.143,-735 " />
    <text
       style="font-size:14px;text-anchor:middle;font-family:'Times,serif'"
       id="text106"
       font-size="14.00"
       y="-713.29999"
       x="83.643303">butta la pasta</text>
  </g>
  <g
     class="edge"
     id="edge7"
     transform="matrix(0.659522,0,0,0.659522,158.92916,536.03512)"
     inkscape:export-filename="/home/nicola/Documents/repos/diario-in-codice-website/resources/diagramma-di-flusso/g4881.png"
     inkscape:export-xdpi="28.173899"
     inkscape:export-ydpi="28.173899">
    <title
       id="title109">node5-&gt;node6</title>
    <path
       style="fill:none;stroke:#000000"
       inkscape:connector-curvature="0"
       id="path111"
       d="m 83.6433,-771.813 c 0,8.024 0,17.766 0,26.744" />
    <polygon
       style="fill:#000000;stroke:#000000"
       id="polygon113"
       points="83.6433,-735.029 83.6433,-735.029 88.1434,-745.029 83.6434,-740.029 83.6434,-745.029 83.6434,-745.029 83.6434,-745.029 83.6434,-740.029 79.1434,-745.029 83.6433,-735.029 " />
  </g>
  <polygon
     points="43.1433,-808 43.1433,-772 124.143,-772 124.143,-808 124.143,-808 "
     id="polygon88"
     style="fill:#ffffff;fill-opacity:1;stroke:#000000"
     transform="matrix(0.659522,0,0,0.659522,159.07316,547.55512)"
     inkscape:export-filename="/home/nicola/Documents/repos/diario-in-codice-website/resources/diagramma-di-flusso/g4881.png"
     inkscape:export-xdpi="28.173899"
     inkscape:export-ydpi="28.173899" />
  <text
     x="214.23778"
     y="28.972984"
     font-size="14.00"
     id="text90"
     style="font-size:9.23330784px;text-anchor:middle;fill:#000000;fill-opacity:1;font-family:'Times,serif'"
     inkscape:export-filename="/home/nicola/Documents/repos/diario-in-codice-website/resources/diagramma-di-flusso/g4881.png"
     inkscape:export-xdpi="28.173899"
     inkscape:export-ydpi="28.173899">metti il sale</text>
  <g
     class="edge"
     id="edge8"
     transform="matrix(0.659522,0,0,0.659522,159.64916,536.03512)"
     inkscape:export-filename="/home/nicola/Documents/repos/diario-in-codice-website/resources/diagramma-di-flusso/g4881.png"
     inkscape:export-xdpi="28.173899"
     inkscape:export-ydpi="28.173899">
    <title
       id="title123">node6-&gt;node7</title>
    <path
       style="fill:none;stroke:#000000"
       inkscape:connector-curvature="0"
       id="path125"
       d="m 83.6433,-698.813 c 0,8.024 0,17.766 0,26.744" />
    <polygon
       style="fill:#000000;stroke:#000000"
       id="polygon127"
       points="83.6434,-672.029 83.6434,-667.029 79.1434,-672.029 83.6433,-662.029 83.6433,-662.029 83.6433,-662.029 88.1434,-672.029 83.6434,-667.029 83.6434,-672.029 83.6434,-672.029 " />
  </g>
  <g
     class="node"
     id="node10"
     transform="matrix(0.659522,0,0,0.659522,162.38516,502.91512)"
     inkscape:export-filename="/home/nicola/Documents/repos/diario-in-codice-website/resources/diagramma-di-flusso/g4881.png"
     inkscape:export-xdpi="28.173899"
     inkscape:export-ydpi="28.173899">
    <title
       id="title153">node9</title>
    <polygon
       style="fill:none;stroke:#000000"
       id="polygon155"
       points="22.6433,-488 22.6433,-452 134.643,-452 134.643,-488 134.643,-488 " />
    <text
       style="font-size:14px;text-anchor:middle;font-family:'Times,serif'"
       id="text157"
       font-size="14.00"
       y="-466.29999"
       x="78.643303">spegni la fiamma</text>
  </g>
  <path
     d="m 214.25215,147.56533 c 0,7.67419 0,17.97263 0,26.75153"
     id="path162"
     inkscape:connector-curvature="0"
     style="fill:none;stroke:#000000;stroke-width:0.659522"
     inkscape:export-filename="/home/nicola/Documents/repos/diario-in-codice-website/resources/diagramma-di-flusso/g4881.png"
     inkscape:export-xdpi="28.173899"
     inkscape:export-ydpi="28.173899" />
  <polygon
     points="78.6433,-575 78.6433,-575 24.1818,-557 78.6433,-539 133.105,-557 "
     id="polygon132"
     style="fill:#dcdcdc;fill-opacity:1;stroke:#000000"
     transform="matrix(0.659522,0,0,0.659522,162.38516,515.87512)"
     inkscape:export-filename="/home/nicola/Documents/repos/diario-in-codice-website/resources/diagramma-di-flusso/g4881.png"
     inkscape:export-xdpi="28.173899"
     inkscape:export-ydpi="28.173899" />
  <polygon
     points="78.6433,-488.175 78.6433,-488.175 78.6433,-488.175 83.1434,-498.175 78.6434,-493.175 78.6434,-498.175 78.6434,-498.175 78.6434,-498.175 78.6434,-493.175 74.1434,-498.175 "
     id="polygon164"
     style="fill:#000000;stroke:#000000"
     transform="matrix(0.659522,0,0,0.659522,162.38516,502.05112)"
     inkscape:export-filename="/home/nicola/Documents/repos/diario-in-codice-website/resources/diagramma-di-flusso/g4881.png"
     inkscape:export-xdpi="28.173899"
     inkscape:export-ydpi="28.173899" />
  <text
     x="222.52931"
     y="172.45074"
     font-size="14.00"
     id="text166"
     style="font-size:9.23330784px;text-anchor:middle;font-family:'Times,serif'"
     inkscape:export-filename="/home/nicola/Documents/repos/diario-in-codice-website/resources/diagramma-di-flusso/g4881.png"
     inkscape:export-xdpi="28.173899"
     inkscape:export-ydpi="28.173899">Sì</text>
  <g
     class="node"
     id="node11"
     transform="matrix(0.659522,0,0,0.659522,320.29769,322.05307)"
     inkscape:export-filename="/home/nicola/Documents/repos/diario-in-codice-website/resources/diagramma-di-flusso/g4881.png"
     inkscape:export-xdpi="28.173899"
     inkscape:export-ydpi="28.173899">
    <title
       id="title169">node10</title>
    <polygon
       style="fill:none;stroke:#000000"
       id="polygon171"
       points="109.643,-379 109.643,-415 109.643,-415 47.6433,-415 47.6433,-379 " />
    <text
       style="font-size:14px;text-anchor:middle;font-family:'Times,serif'"
       id="text173"
       font-size="14.00"
       y="-393.29999"
       x="78.643303">impiatta</text>
  </g>
  <g
     class="edge"
     id="edge12"
     transform="matrix(0.659522,0,0,0.659522,162.38516,502.91512)"
     inkscape:export-filename="/home/nicola/Documents/repos/diario-in-codice-website/resources/diagramma-di-flusso/g4881.png"
     inkscape:export-xdpi="28.173899"
     inkscape:export-ydpi="28.173899">
    <title
       id="title176">node9-&gt;node10</title>
    <path
       style="fill:none;stroke:#000000"
       inkscape:connector-curvature="0"
       id="path178"
       d="m 78.6433,-451.813 c 0,8.024 0,17.766 0,26.744" />
    <polygon
       style="fill:#000000;stroke:#000000"
       id="polygon180"
       points="78.6433,-415.029 78.6433,-415.029 83.1434,-425.029 78.6434,-420.029 78.6434,-425.029 78.6434,-425.029 78.6434,-425.029 78.6434,-420.029 74.1434,-425.029 78.6433,-415.029 " />
  </g>
  <g
     class="edge"
     id="edge13"
     transform="matrix(0.659522,0,0,0.659522,320.29769,311.97307)"
     inkscape:export-filename="/home/nicola/Documents/repos/diario-in-codice-website/resources/diagramma-di-flusso/g4881.png"
     inkscape:export-xdpi="28.173899"
     inkscape:export-ydpi="28.173899">
    <title
       id="title190">node10-&gt;node11</title>
    <path
       style="fill:none;stroke:#000000"
       inkscape:connector-curvature="0"
       id="path192"
       d="m 78.6433,-363.5292 c 0,8.024 0,2.4822 0,11.4602"
       sodipodi:nodetypes="cc" />
    <polygon
       style="fill:#000000;stroke:#000000"
       id="polygon194"
       points="78.6434,-347.029 78.6434,-352.029 78.6434,-352.029 78.6434,-352.029 78.6434,-347.029 74.1434,-352.029 78.6433,-342.029 78.6433,-342.029 78.6433,-342.029 83.1434,-352.029 " />
  </g>
  <polygon
     points="152.208,-251 78.6433,-269 78.6433,-269 5.07813,-251 78.6433,-233 "
     id="polygon199"
     style="fill:#dcdcdc;fill-opacity:1;stroke:#000000"
     transform="matrix(0.659522,0,0,0.659522,320.29769,298.00507)"
     inkscape:export-filename="/home/nicola/Documents/repos/diario-in-codice-website/resources/diagramma-di-flusso/g4881.png"
     inkscape:export-xdpi="28.173899"
     inkscape:export-ydpi="28.173899" />
  <text
     x="372.16467"
     y="134.90529"
     font-size="14.00"
     id="text201"
     style="font-size:9.23330784px;text-anchor:middle;font-family:'Times,serif'"
     inkscape:export-filename="/home/nicola/Documents/repos/diario-in-codice-website/resources/diagramma-di-flusso/g4881.png"
     inkscape:export-xdpi="28.173899"
     inkscape:export-ydpi="28.173899">formaggio?</text>
  <g
     class="edge"
     id="edge14"
     transform="matrix(0.659522,0,0,0.659522,320.29769,298.00507)"
     inkscape:export-filename="/home/nicola/Documents/repos/diario-in-codice-website/resources/diagramma-di-flusso/g4881.png"
     inkscape:export-xdpi="28.173899"
     inkscape:export-ydpi="28.173899">
    <title
       id="title204">node11-&gt;node12</title>
    <path
       style="fill:none;stroke:#000000"
       inkscape:connector-curvature="0"
       id="path206"
       d="m 78.6433,-290.5292 c 0,8.024 0,2.4822 0,11.4602"
       sodipodi:nodetypes="cc" />
    <polygon
       style="fill:#000000;stroke:#000000"
       id="polygon208"
       points="78.6434,-274.029 74.1434,-279.029 78.6433,-269.029 78.6433,-269.029 78.6433,-269.029 83.1434,-279.029 78.6434,-274.029 78.6434,-279.029 78.6434,-279.029 78.6434,-279.029 " />
  </g>
  <polygon
     points="113.143,-306 113.143,-342 113.143,-342 44.1433,-342 44.1433,-306 "
     id="polygon185"
     style="fill:#ffffff;fill-opacity:1;stroke:#000000"
     transform="matrix(0.659522,0,0,0.659522,320.29769,312.40507)" />
  <text
     x="372.16467"
     y="101.16018"
     font-size="14.00"
     id="text187"
     style="font-size:9.23330784px;text-anchor:middle;font-family:'Times,serif'">filo d'olio</text>
  <polygon
     points="194.643,-146 194.643,-182 194.643,-182 112.643,-182 112.643,-146 "
     id="polygon213"
     style="fill:#ffffff;fill-opacity:1;stroke:#000000"
     transform="matrix(0.659522,0,0,0.659522,341.89769,267.76507)"
     inkscape:export-filename="/home/nicola/Documents/repos/diario-in-codice-website/resources/diagramma-di-flusso/g4881.png"
     inkscape:export-xdpi="28.173899"
     inkscape:export-ydpi="28.173899" />
  <text
     x="443.22864"
     y="162.04369"
     font-size="14.00"
     id="text215"
     style="font-size:9.23330784px;text-anchor:middle;fill:#000000;fill-opacity:1;font-family:'Times,serif'"
     inkscape:export-filename="/home/nicola/Documents/repos/diario-in-codice-website/resources/diagramma-di-flusso/g4881.png"
     inkscape:export-xdpi="28.173899"
     inkscape:export-ydpi="28.173899">grattuggiare</text>
  <g
     class="node"
     id="node15"
     transform="matrix(0.659522,0,0,0.659522,304.60169,243.28507)"
     inkscape:export-filename="/home/nicola/Documents/repos/diario-in-codice-website/resources/diagramma-di-flusso/g4881.png"
     inkscape:export-xdpi="28.173899"
     inkscape:export-ydpi="28.173899">
    <title
       id="title227">node14</title>
    <polygon
       style="fill:none;stroke:#000000"
       id="polygon229"
       points="149.643,-73 149.643,-109 149.643,-109 55.6433,-109 55.6433,-73 " />
    <text
       style="font-size:14px;text-anchor:middle;font-family:'Times,serif'"
       id="text231"
       font-size="14.00"
       y="-87.300003"
       x="102.643">servi in tavola</text>
  </g>
  <g
     class="node"
     id="node16"
     transform="matrix(0.659522,0,0,0.659522,304.60169,228.88507)"
     inkscape:export-filename="/home/nicola/Documents/repos/diario-in-codice-website/resources/diagramma-di-flusso/g4881.png"
     inkscape:export-xdpi="28.173899"
     inkscape:export-ydpi="28.173899">
    <title
       id="title250">node15</title>
    <ellipse
       style="fill:#44ff44;stroke:#44ff44"
       sodipodi:ry="18"
       sodipodi:rx="64.189003"
       sodipodi:cy="-18"
       sodipodi:cx="102.643"
       d="m 166.832,-18 c 0,9.9411255 -28.73839,18 -64.189,18 -35.45061,0 -64.189005,-8.0588745 -64.189005,-18 0,-9.941125 28.738395,-18 64.189005,-18 35.45061,0 64.189,8.058875 64.189,18 z"
       id="ellipse252"
       ry="18"
       rx="64.189003"
       cy="-18"
       cx="102.643" />
    <text
       style="font-size:14px;text-anchor:middle;font-family:'Courier,monospace'"
       id="text254"
       font-size="14.00"
       y="-14.3"
       x="102.643">si mangia!</text>
  </g>
  <g
     class="edge"
     id="edge18"
     transform="matrix(0.659522,0,0,0.659522,304.60169,228.59707)"
     inkscape:export-filename="/home/nicola/Documents/repos/diario-in-codice-website/resources/diagramma-di-flusso/g4881.png"
     inkscape:export-xdpi="28.173899"
     inkscape:export-ydpi="28.173899">
    <title
       id="title257">node14-&gt;node15</title>
    <path
       style="fill:none;stroke:#000000"
       inkscape:connector-curvature="0"
       id="path259"
       d="m 102.643,-50.978905 c 0,8.0234 0,-4.068595 0,4.909805"
       sodipodi:nodetypes="cc" />
    <polygon
       style="fill:#000000;stroke:#000000"
       id="polygon261"
       points="98.1434,-46.0289 102.643,-36.0288 102.643,-36.0288 102.643,-36.0288 107.143,-46.0288 102.643,-41.0288 102.643,-46.0288 102.643,-46.0288 102.643,-46.0288 102.643,-41.0288 " />
  </g>
  <g
     transform="matrix(0.659522,0,0,0.659522,-18.85318,831.06301)"
     id="g3399"
     class="edge"
     inkscape:export-filename="/home/nicola/Documents/repos/diario-in-codice-website/resources/diagramma-di-flusso/g4881.png"
     inkscape:export-xdpi="28.173899"
     inkscape:export-ydpi="28.173899">
    <title
       id="title3401">node2-&gt;node3</title>
    <path
       d="m 111.643,-1003.5462 c 0,7.94 0,2.1362 0,10.9182"
       id="path3403"
       inkscape:connector-curvature="0"
       style="fill:none;stroke:#000000"
       sodipodi:nodetypes="cc" />
    <polygon
       points="111.643,-982.418 116.143,-992.418 111.643,-987.418 111.643,-992.418 111.643,-992.418 111.643,-992.418 111.643,-987.418 107.143,-992.418 111.643,-982.418 111.643,-982.418 "
       id="polygon3405"
       style="fill:#000000;stroke:#000000" />
  </g>
  <path
     style="fill:none;stroke:#000000;stroke-width:0.72000003;stroke-linecap:butt;stroke-linejoin:miter;stroke-miterlimit:4;stroke-opacity:1;stroke-dasharray:none;marker-start:none;marker-end:url(#Arrow1Mend)"
     d="m 108.36168,195.2276 23.26042,0 0,-64.1357 -64.248638,0 0,12.80074"
     id="path3407"
     inkscape:connector-curvature="0"
     sodipodi:nodetypes="ccccc"
     inkscape:export-filename="/home/nicola/Documents/repos/diario-in-codice-website/resources/diagramma-di-flusso/g4881.png"
     inkscape:export-xdpi="28.173899"
     inkscape:export-ydpi="28.173899" />
  <polygon
     points="83.6433,-808.175 88.1434,-818.175 83.6434,-813.175 83.6434,-818.175 83.6434,-818.175 83.6434,-818.175 83.6434,-813.175 79.1434,-818.175 83.6433,-808.175 83.6433,-808.175 "
     id="polygon97"
     style="fill:#000000;stroke:#000000"
     transform="matrix(0.659522,0,0,0.659522,-0.85318026,762.37501)"
     inkscape:export-filename="/home/nicola/Documents/repos/diario-in-codice-website/resources/diagramma-di-flusso/g4881.png"
     inkscape:export-xdpi="28.173899"
     inkscape:export-ydpi="28.173899" />
  <text
     x="54.74342"
     y="197.93445"
     font-size="14.00"
     id="text67"
     style="font-size:9.23330784px;text-anchor:middle;font-family:'Times,serif'"
     inkscape:export-filename="/home/nicola/Documents/repos/diario-in-codice-website/resources/diagramma-di-flusso/g4881.png"
     inkscape:export-xdpi="28.173899"
     inkscape:export-ydpi="28.173899">l'acqua bolle?</text>
  <text
     xml:space="preserve"
     style="font-size:1.58399999px;font-style:normal;font-weight:normal;line-height:125%;letter-spacing:0px;word-spacing:0px;fill:#000000;fill-opacity:1;stroke:none;font-family:'Tom\'s New Roman';-inkscape-font-specification:'Tom\'s New Roman'"
     x="114.70342"
     y="189.69536"
     id="text4801"
     sodipodi:linespacing="125%"
     inkscape:export-filename="/home/nicola/Documents/repos/diario-in-codice-website/resources/diagramma-di-flusso/g4881.png"
     inkscape:export-xdpi="28.173899"
     inkscape:export-ydpi="28.173899"><tspan
       sodipodi:role="line"
       id="tspan4803"
       x="114.70342"
       y="189.69536"
       style="font-size:10.36800003px;font-style:normal;font-variant:normal;font-weight:normal;font-stretch:normal;text-align:start;line-height:125%;writing-mode:lr-tb;text-anchor:start;font-family:'Tom\'s New Roman';-inkscape-font-specification:'Tom\'s New Roman,'">No</tspan></text>
  <path
     sodipodi:nodetypes="ccccc"
     inkscape:connector-curvature="0"
     id="path4825"
     d="m 249.28002,148.16771 41.98042,0 0,-62.551705 -64.24864,0 0,12.800743"
     style="fill:none;stroke:#000000;stroke-width:0.72000003;stroke-linecap:butt;stroke-linejoin:miter;stroke-miterlimit:4;stroke-opacity:1;stroke-dasharray:none;marker-start:none;marker-end:url(#Arrow1Mend)"
     inkscape:export-filename="/home/nicola/Documents/repos/diario-in-codice-website/resources/diagramma-di-flusso/g4881.png"
     inkscape:export-xdpi="28.173899"
     inkscape:export-ydpi="28.173899" />
  <text
     x="214.25217"
     y="150.96155"
     font-size="14.00"
     id="text134"
     style="font-size:9.23330784px;text-anchor:middle;font-family:'Times,serif'"
     inkscape:export-filename="/home/nicola/Documents/repos/diario-in-codice-website/resources/diagramma-di-flusso/g4881.png"
     inkscape:export-xdpi="28.173899"
     inkscape:export-ydpi="28.173899">è cotta?</text>
  <polygon
     points="38.1433,-662 38.1433,-626 129.143,-626 129.143,-662 129.143,-662 "
     id="polygon118"
     style="fill:#ffffff;fill-opacity:1;stroke:#000000"
     transform="matrix(0.659522,0,0,0.659522,159.50516,536.03512)"
     inkscape:export-filename="/home/nicola/Documents/repos/diario-in-codice-website/resources/diagramma-di-flusso/g4881.png"
     inkscape:export-xdpi="28.173899"
     inkscape:export-ydpi="28.173899" />
  <text
     x="214.66978"
     y="113.74312"
     font-size="14.00"
     id="text120"
     style="font-size:9.23330784px;text-anchor:middle;fill:#000000;fill-opacity:1;font-family:'Times,serif'"
     inkscape:export-filename="/home/nicola/Documents/repos/diario-in-codice-website/resources/diagramma-di-flusso/g4881.png"
     inkscape:export-xdpi="28.173899"
     inkscape:export-ydpi="28.173899">aspetta un po'</text>
  <text
     sodipodi:linespacing="125%"
     id="text4827"
     y="137.01968"
     x="274.34177"
     style="font-size:1.58399999px;font-style:normal;font-weight:normal;line-height:125%;letter-spacing:0px;word-spacing:0px;fill:#000000;fill-opacity:1;stroke:none;font-family:'Tom\'s New Roman';-inkscape-font-specification:'Tom\'s New Roman'"
     xml:space="preserve"
     inkscape:export-filename="/home/nicola/Documents/repos/diario-in-codice-website/resources/diagramma-di-flusso/g4881.png"
     inkscape:export-xdpi="28.173899"
     inkscape:export-ydpi="28.173899"><tspan
       style="font-size:10.36800003px;font-style:normal;font-variant:normal;font-weight:normal;font-stretch:normal;text-align:start;line-height:125%;writing-mode:lr-tb;text-anchor:start;font-family:'Tom\'s New Roman';-inkscape-font-specification:'Tom\'s New Roman,'"
       y="137.01968"
       x="274.34177"
       id="tspan4829"
       sodipodi:role="line">No</tspan></text>
  <path
     style="fill:none;stroke:#000000;stroke-width:0.659522"
     inkscape:connector-curvature="0"
     id="path4840"
     d="m 372.16467,144.55467 c 0,5.292 0,20.35707 0,26.27825"
     sodipodi:nodetypes="cc"
     inkscape:export-filename="/home/nicola/Documents/repos/diario-in-codice-website/resources/diagramma-di-flusso/g4881.png"
     inkscape:export-xdpi="28.173899"
     inkscape:export-ydpi="28.173899" />
  <polygon
     style="fill:#000000;stroke:#000000"
     id="polygon4842"
     points="78.6434,-274.029 74.1434,-279.029 78.6433,-269.029 78.6433,-269.029 78.6433,-269.029 83.1434,-279.029 78.6434,-274.029 78.6434,-279.029 78.6434,-279.029 78.6434,-279.029 "
     transform="matrix(0.659522,0,0,0.659522,320.29769,347.97307)"
     inkscape:export-filename="/home/nicola/Documents/repos/diario-in-codice-website/resources/diagramma-di-flusso/g4881.png"
     inkscape:export-xdpi="28.173899"
     inkscape:export-ydpi="28.173899" />
  <text
     style="font-size:9.23330784px;text-anchor:middle;font-family:'Times,serif'"
     id="text4846"
     font-size="14.00"
     y="128.82104"
     x="438.04193"
     inkscape:export-filename="/home/nicola/Documents/repos/diario-in-codice-website/resources/diagramma-di-flusso/g4881.png"
     inkscape:export-xdpi="28.173899"
     inkscape:export-ydpi="28.173899">Sì</text>
  <text
     xml:space="preserve"
     style="font-size:1.58399999px;font-style:normal;font-weight:normal;line-height:125%;letter-spacing:0px;word-spacing:0px;fill:#000000;fill-opacity:1;stroke:none;font-family:'Tom\'s New Roman';-inkscape-font-specification:'Tom\'s New Roman'"
     x="374.65405"
     y="159.63005"
     id="text4850"
     sodipodi:linespacing="125%"
     inkscape:export-filename="/home/nicola/Documents/repos/diario-in-codice-website/resources/diagramma-di-flusso/g4881.png"
     inkscape:export-xdpi="28.173899"
     inkscape:export-ydpi="28.173899"><tspan
       sodipodi:role="line"
       id="tspan4852"
       x="374.65405"
       y="159.63005"
       style="font-size:10.36800003px;font-style:normal;font-variant:normal;font-weight:normal;font-stretch:normal;text-align:start;line-height:125%;writing-mode:lr-tb;text-anchor:start;font-family:'Tom\'s New Roman';-inkscape-font-specification:'Tom\'s New Roman,'">No</tspan></text>
  <g
     transform="matrix(0.659522,0,0,0.659522,320.29769,273.09307)"
     id="g4873"
     class="edge"
     inkscape:export-filename="/home/nicola/Documents/repos/diario-in-codice-website/resources/diagramma-di-flusso/g4881.png"
     inkscape:export-xdpi="28.173899"
     inkscape:export-ydpi="28.173899">
    <title
       id="title4875">node10-&gt;node11</title>
    <path
       sodipodi:nodetypes="cc"
       d="m 78.6433,-361.3458 c 0,8.024 0,0.2988 0,9.2768"
       id="path4877"
       inkscape:connector-curvature="0"
       style="fill:none;stroke:#000000" />
    <polygon
       points="83.1434,-352.029 78.6434,-347.029 78.6434,-352.029 78.6434,-352.029 78.6434,-352.029 78.6434,-347.029 74.1434,-352.029 78.6433,-342.029 78.6433,-342.029 78.6433,-342.029 "
       id="polygon4879"
       style="fill:#000000;stroke:#000000" />
  </g>
  <g
     class="edge"
     id="g4881"
     transform="matrix(0.659522,0,0,0.659522,163.33769,240.11707)"
     inkscape:export-xdpi="28.173899"
     inkscape:export-ydpi="28.173899">
    <title
       id="title4883">node10-&gt;node11</title>
    <path
       style="fill:none;stroke:#000000"
       inkscape:connector-curvature="0"
       id="path4885"
       d="m 78.6433,-363.5292 c 0,8.024 0,2.4822 0,11.4602"
       sodipodi:nodetypes="cc" />
    <polygon
       style="fill:#000000;stroke:#000000"
       id="polygon4887"
       points="78.6434,-347.029 78.6434,-352.029 78.6434,-352.029 78.6434,-352.029 78.6434,-347.029 74.1434,-352.029 78.6433,-342.029 78.6433,-342.029 78.6433,-342.029 83.1434,-352.029 " />
  </g>
  <g
     inkscape:export-ydpi="28.173899"
     inkscape:export-xdpi="28.173899"
     inkscape:export-filename="/home/nicola/Documents/repos/diario-in-codice-website/resources/diagramma-di-flusso/g4881.png"
     transform="matrix(0.659522,0,0,0.659522,320.29769,284.61307)"
     id="g4910"
     class="node">
    <title
       id="title4912">node10</title>
    <polygon
       points="109.643,-415 47.6433,-415 47.6433,-379 109.643,-379 109.643,-415 "
       id="polygon4914"
       style="fill:none;stroke:#000000" />
    <text
       x="78.643303"
       y="-393.29999"
       font-size="14.00"
       id="text4916"
       style="font-size:14px;text-anchor:middle;font-family:'Times,serif'">scola</text>
  </g>
  <g
     inkscape:export-ydpi="28.173899"
     inkscape:export-xdpi="28.173899"
     inkscape:export-filename="/home/nicola/Documents/repos/diario-in-codice-website/resources/diagramma-di-flusso/g4881.png"
     class="edge"
     id="g4920"
     transform="matrix(0.659522,0,0,0.659522,320.29769,235.65307)">
    <title
       id="title4922">node10-&gt;node11</title>
    <path
       style="fill:none;stroke:#000000"
       inkscape:connector-curvature="0"
       id="path4924"
       d="m 78.6433,-356.979 c 0,8.024 0,-4.068 0,4.91"
       sodipodi:nodetypes="cc" />
    <polygon
       style="fill:#000000;stroke:#000000"
       id="polygon4926"
       points="74.1434,-352.029 78.6433,-342.029 78.6433,-342.029 78.6433,-342.029 83.1434,-352.029 78.6434,-347.029 78.6434,-352.029 78.6434,-352.029 78.6434,-352.029 78.6434,-347.029 " />
  </g>
  <path
     style="fill:none;stroke:#000000;stroke-width:0.72000003;stroke-linecap:butt;stroke-linejoin:miter;stroke-miterlimit:4;stroke-opacity:1;stroke-dasharray:0.72, 2.15999999;stroke-dashoffset:0"
     d="m 214.36,231.28408 94.40987,0 0,-230.9176209 63.76271,0"
     id="path4928"
     inkscape:connector-curvature="0"
     sodipodi:nodetypes="cccc" />
  <path
     sodipodi:nodetypes="cccc"
     inkscape:connector-curvature="0"
     id="path4930"
     d="m 54.088,231.28408 97.00187,0 0,-230.9176209 63.76271,0"
     style="fill:none;stroke:#000000;stroke-width:0.72000003;stroke-linecap:butt;stroke-linejoin:miter;stroke-miterlimit:4;stroke-opacity:1;stroke-dasharray:0.72, 2.15999999;stroke-dashoffset:0" />
</svg>
